<svg width="30" height="30" viewBox="0 0 40 40" fill="none" xmlns="http://www.w3.org/2000/svg">
<path d="M20 0C8.95424 0 0 8.95424 0 20C0 31.0458 8.95424 40 20 40C31.0458 40 40 31.0458 40 20C40 8.95424 31.0458 0 20 0ZM26.1784 19.835H22.3752V33.861H16.6131V19.927H13.4774V15.0869H16.519C16.519 13.6555 16.5318 12.3838 16.519 11.0558C16.519 7.24464 19.4435 6.13888 22.0726 6.13888H26.5053V10.92C26.1331 10.9222 24.683 10.92 23.9373 10.92C23.843 10.92 22.2758 10.8338 22.2758 12.3398C22.2853 12.955 22.2758 15.0733 22.2758 15.0733H26.5224L26.1784 19.835Z" fill="#fff"/>
</svg>
