<svg width="448" height="140" viewBox="0 0 448 140" fill="none" xmlns="http://www.w3.org/2000/svg">
<path d="M146.5 21.9L147.4 22H148H148.1H148.2L148.3 21.9L148.4 21.8L148.1 21.7L147.2 21.6L146.7 21.7L146.5 21.9ZM149.9 20.6L149.6 20.7L149.3 20.8L149.5 20.9L150.2 21V20.8L150.3 20.6H149.9ZM140.6 18.1L140.9 18.2H141L141.3 18.1L141.5 18.3H141.7L141.6 18H141.9H142L141.9 17.9L141.7 17.8L141.4 17.5H141.1H140.9L141 17.6L141.2 17.8H141L140.6 17.7L140.3 18L140.4 18.1H140.6ZM150.2 4L150.7 4.1L151.1 4.2L153.1 4.4L154.8 4.6H155.3L156.1 4.4L156.5 4.3H156.7L157.3 4.2L159.2 4.1L161.9 3.9L162.1 3.8L162.2 3.7L161.9 3.6L161.8 3.5L161.1 3.2L160.9 3.1H160.7L160.6 2.9L160.7 2.8L161.6 2.7L161.7 2.6H161.9L161.7 2.4L161.5 2.3L161 2.5H160.3L158.5 2.2L158.3 2.1L157.9 2L157.7 1.9L157.5 1.8L156.6 1.6H156.3H156L155.7 1.5H155.4H154.1V1.7L153.8 1.8L153.4 1.9H152.9H152.5L152.1 2H151.7H151.4H151.1L150.6 2.1L150.5 2.3L150.2 2.4L150.1 2.5V2.7V2.8H150.5L151.5 2.7L151.2 2.9L151.1 3.1L150.8 3.3L150.2 3.4L149.5 3.5L149.2 3.7L149 3.9L149.5 4.1L150.2 4ZM143.6 1.8L146.4 1.9L146.9 1.7L146.6 1.6H145.8H143.5L143.3 1.7L143.4 1.8H143.6ZM77.8 30.3L77.3 30.4L77.2 30.5L77.3 30.6H77.4L77.8 30.7H78.1L78.7 30.9L78.9 31.1L79.1 31.2L79.4 31.3L79.6 31.4L79.7 31.5H79.9L79.8 31.4L79.6 31.3V31.2L79.8 30.9L79.7 30.7L79.5 30.6H79.3L79 30.4L78.7 30.2L78.3 30.1H78.2L78.3 30.2L78 30.1L77.8 30.3ZM154.5 5.4L154.9 5.3L155.3 5.2L155.5 5L154.7 4.9L152.6 4.8L151.5 4.7H150.6H149.9H149.5L149.3 4.8L149.6 5L150.3 5.2L151.1 5.3L152.4 5.6H153.1H153.6L154.1 5.5L154.5 5.4ZM169.7 5.7H170.1L170.3 5.5H169.9H169.7H169.5V5.6L169.7 5.7ZM139.5 25.9L140.1 26.1L141.5 26.2H141.6V26.1L141.3 25.6L140.8 25.4L140.5 25.2L139.9 25L139.1 25.6V25.7L139.5 25.9ZM160.5 4.4H160.2H160H159.3H158.5L158.4 4.5V4.6H158.3L157.5 4.4H157.4L157.3 4.5L157.2 4.6L156.6 4.8L156.7 5.1L156.4 5.3L156.1 5.4L155.3 5.6L155 6L155.6 6.1H156H156.6L157.8 6.2L158.3 6.5L158.9 6.7L159.3 6.8L159.5 6.9H159.6L160 7L160.6 7.1H160.9L161.4 7H161.6L162.2 7.2H162.4H163.6H163.8H164.7L164.9 7.3L165.1 7.4L166 7.6L166.8 7.7H167.1H167.6H167.9L168.5 7.8H168.8L169.6 7.7H170.9L171.1 7.6L171.6 7.3L171.4 7.2L170.9 7H170.7L170.1 6.9L169.3 6.6L168.5 6.4H168.6H168.7L169.3 6.5H169.6L169.8 6.4L169.7 6.2L169.4 6L169.3 5.9V5.8L169.2 5.7L169 5.5V5.4L168.9 5.2L169.1 5.1L168.6 4.9L168.2 4.8L167.9 4.7L167.4 4.6L167.2 4.5H166.9L167 4.6L166 4.5H165.4H165.3V4.6L165.5 4.7L165.4 5H165.3L164.8 4.9L164.5 5L164.4 5.2L164.3 5.3H164.1L163.9 5.1L164 5L163.9 4.8L164 4.7L164.2 4.6L163.7 4.4L163 4.3H162.8H161.8L160.5 4.4ZM170 12.6L169.8 12.4L168.6 12.7L167.7 12.8L167.5 12.9H167.7H168.4L168.7 13H169L169.5 12.9H169.8H169.9V12.8L170.1 12.7L170 12.6ZM153.2 19.1L153 19.2L152.7 19.3L152.6 19.4L153 19.5H153.7L154.3 19.6L154.4 19.5L154.5 19.3L154.2 19.2H154.1L153.6 19.3L153.4 19.2L153.2 19.1ZM154.1 12.3L153.8 12.1H153.1L153 12.2V12.3H153.1L153.4 12.4H153.9L154.1 12.3ZM91.1 15.2L90.9 15.3L91 15.5L91.1 15.6L91 15.7L90.9 15.8H90.6L90.4 15.7H90.1H89.4L89.1 15.8V16L88.6 16.1L87.7 16.2L87.2 16.3H86.9L86.7 16.4L86.3 16.6L85.9 16.8L85.2 17L85.3 17.1L85.4 17.2L84.8 17.5L84.7 17.7V18L83.9 17.9H83.4H83.2L82.9 18V18.1L83 18.3L83.2 18.4L82.7 18.8H82.5L82.2 18.7L81.9 18.6L81.6 18.5H81.3L81.1 18.6L80.9 18.7L81 18.8L81.1 18.9L81.5 19.1H82.3L82.6 19.2H82.8L82.2 19.4L81.6 19.7L81.2 20.1L81.1 20.2L81.2 20.3L81.4 20.4H81.6H82.1L82.6 20.5H82.5L81 20.6L80.8 20.7L80.4 21.4L80.2 21.6L80 21.7L79.9 21.9L79.8 22.1H79.7H79.2L78.8 22.3L78.4 22.5L78.2 22.6L78 22.7L78.3 22.9L79.4 23.4L79.3 23.6L79.9 24L80.4 23.8L80.8 23.7H81.4L82.1 23.9L82.8 24H84L84.5 24.1L85 24.2H85.5L86.2 24L86.4 23.6L87 23.3L87.1 23.2L86.8 22.9L86.3 22.7V22.6H86.6L87 22.8H87.1H87.3L87.5 22.7V22.6L87.4 22.5L87.1 22.3L87 22.2L88.4 21.8L88.7 21.5V21.3L88.6 21.2L88.3 20.9L88.1 20.8V20.7L89.1 20.8L89.3 20.7L89.4 20.6V20.5L89.3 20.3V20.1L89.4 20L90.4 20.2H90.6L90.7 20.1V20L90.6 19.9L90.5 19.7H91.1H91.3L91.6 19.6L91.7 19.5L92 19.4L92.1 19.3L91.9 19.2L91.4 19.1V19L91.8 18.9H91.9H92.2H92.3L92.5 18.8L92.7 18.6L93.1 18.4L93.2 18.2L93.4 18.1H93.7H94L94.9 17.8L96.9 17.4L97.5 17.3L98 17H98.3L99.3 16.9L100.3 16.7L101.3 16.5L102.1 16.3L103.5 16.1L104.2 15.9L104.7 15.8L105.2 15.7L105.6 15.5L106.4 15.3L107.2 15.2L107.3 15.1L107.8 14.7L108.3 14.3L108.1 14.2V14.1V14L107.9 13.8L107.8 13.7L107.2 13.5L106.6 13.3L105.4 13.1L104.5 13H104.2L103.7 13.1L102.8 13.2L101.9 13.5L101.4 13.7L101.3 13.9L101.2 14.1L101 14.2H100.7H100.5L100.1 14.3L99.9 14.4H99.6H99.3L98.9 14.6L98.4 14.7L96.4 14.9L95.3 15.1H94.8H94.1H93.5L92.4 15H91.9L91.1 15.2ZM117.7 24.7L117.6 24.8L117.7 24.9L118.1 25L118.3 24.9H118.8H119L119.6 24.8L120.1 24.7L121.1 24.6H121.7L121.6 24.4L121.4 24.2L120.9 24L120.6 23.9L120.2 23.7L119.9 23.6L119.6 23.5H119.4L118.1 23.6L117.7 23.7L117.5 24L117.8 24.4L117.7 24.7ZM136.2 27.4H136.8H138L138.3 27.3L138.7 27L139 26.9L139.4 26.7L139.3 26.6L139 26.4L137.5 26.2H137.1L136.7 26.4L136.6 26.6L136.4 26.7L136 26.9V27.1L136.2 27.4ZM91.4 32.5L91.2 32.4L91 32.3L89.8 32L89.3 31.8L88 31.2L86.7 30.4L85.9 29.9L85.1 29.3L84.8 29L84.5 28.7L84 28.5L84.1 28.2L84 27.9L84.1 27.7V27.6L83.7 27.3L83.6 27.1L83.5 27L83.4 26.8L83.5 26.7L83.4 26.5L83.5 26.4L83.9 26.3L84 26.1V25.9L83.9 25.8L84.1 25.7H84.7L84.8 25.6L84.9 25.5V25.3L84.7 25.1V24.9L84.9 24.6L85 24.5V24.3L84.8 24.2L84.2 24.1H83.3L82.1 24L81.6 23.8L81.1 23.7H80.8L80.5 23.8L79.8 24L79.5 24.1H79.2L78.6 24H78.3L78.1 24.1L77.8 24.2H77.4L77.2 24.3L77.1 24.4V24.5L77.3 24.8L77.4 24.9L77.8 25.1H77.5H77.2H76.9H76.6L76.4 25.2L75.9 25.5V25.6V25.7L76.1 25.8L76.3 25.9H76.9L76.8 26.1V26.2L77 26.3L76.8 26.5V26.6V26.7V26.9L76.7 27L76.6 27.1L76.3 27.2L76.2 27.4L76.1 27.5L75.9 27.6H75.4L74.9 27.5H74.7L74.4 27.6L74.3 27.7L74.2 28V28.1L74.3 28.4L74.4 28.6L74.7 29L75 29.2L75.3 29.3L76 30L76.3 30.1H76.9L77.4 30L78.1 30.1H78.7L79.8 30H79.9L79.8 30.2L79.9 30.4L80.2 30.6H80.5H80.8V30.7L81.7 31L82.5 31.2L82.4 31.3L81.9 31.2H81.7L81.8 31.4L81.3 31.3L81.1 31.4L81.2 31.6L81.3 31.8V31.9H81L80.8 32L81.7 32.2L83 32.4L83.4 32.5L83.9 32.7H84.1V32.6L84.2 32.5L84.8 32.7H85.3H85.8L86.9 32.6L87 32.7V32.8L87.3 32.9H87.6L87.7 32.8L88.1 32.9V32.8H88.2L89.1 33.1H89.3L89.4 33L88.9 32.8H88.7L88.5 32.7L88.8 32.6H89.1L89.3 32.7L89.5 32.8H89.6L90.9 33L91.1 32.9V32.8L91.5 32.7L91.4 32.5ZM99.6 35L99.4 34.9L98.8 34.7L98.1 34.4L97.2 34.1L96.9 33.9L96.6 33.7L96.2 33.5L95.5 33.3L95.4 33.2H95.3L94.8 33.3L94.6 33.5H94.5L94.3 33.6V33.8L94.7 34.2L94.8 34.3L94.9 34.4L95.1 34.5L96 35H96.1L96.3 34.9H96.4L96.7 35H97L97.3 35.1L97.6 35.3L97.7 35.5L97.9 35.6H98.1H98.3H98.6L98.8 35.5L99.3 35.6L99.5 35.5H99.8V35.3L99.7 35H99.6ZM113.6 33L113.8 33.1H114L113.9 33L113.4 32.5L113.3 32.3H113.2V32.4L113.4 32.8L113.6 33ZM130.4 23.8H131.2L131.3 23.7L131.5 23.5H131.4H131.1L130.3 23.6L130 23.8V23.9L130.4 23.8ZM133.2 23.9H133.4L132 23.6H131.7L131.6 23.7L132.1 23.8L133.2 23.9ZM121.2 2.6L123.1 2.5L123.7 2.4V2.3L123.3 2.2L122.2 2.1H121L120.9 2.2L120.8 2.4H120.9L121.2 2.6ZM128.2 25.3L129 25.5L129.4 25.6L129.6 25.7V25.6L129.5 25.5L129.4 25.4L129.5 25.2L130 25.1L129.3 25H129H128.5L128 25.1L127.9 25.2V25.4L128.2 25.3ZM117.8 5.8L118.5 5.9H118.9L119.1 6H119.5H121.2L121 5.9L120.5 5.8L118.3 5.6L118.2 5.7L117.8 5.6H117.5L117.3 5.7L117.4 5.8H117.8ZM145.6 21.6H145.3L145.2 21.7L145.4 21.8L145.7 21.9L146.1 22L146.2 21.9L146.1 21.8L145.8 21.7L145.6 21.6ZM170.6 15.3L170 15.2L169.9 15.3L170 15.4L170.9 15.5L171.4 15.6H172L172.5 15.7V15.5L172.4 15.4L172.6 15.3H172.9L172.8 15.2H172.6L171.9 15.1L171.7 15.2L170.8 15.1L170.6 15.3ZM292.2 14.1L292 13.8L292.1 13.7L290.7 13.8L290.4 14V14.1H292.2ZM286.3 29.8H286.1L286.2 29.9L286.8 30H287L287.1 29.9H287.2H287.4L287.8 30H288.1L288.4 29.7L288.2 29.6L287.9 29.5H287.8H286.5L286.3 29.8ZM269.5 16.6L270 16.8L269.1 16.7L269 16.8L269.7 17.4L270.8 18H270.5L270 17.9L270.1 18L270.4 18.2L270.7 18.3L271.7 18.6L272.5 18.8H272.8L273.2 18.9L274.3 19.3L274.7 19.4L275 19.5L277.2 19.8L277.6 19.9L278 20H278.3L278.4 19.9V19.7L278.2 19.4L278 19.2V19.1L278.1 19H278.3L279.2 19.2L280 19.3H280.4L280.7 19.2L282 19.1L282.4 19L282.8 18.9H283.3L283.7 19L284.1 19.2L284.6 19.4L284.9 19.5H285.2L285.5 19.4L285.7 19.3L286.1 19L285.2 18.7L284.5 18.6L284.2 18.5L282.4 17.9L282 17.8L281.6 17.6L280.5 17L280.9 16.9L281.3 16.8H282.2L282.6 17L282.7 17.1V17.3L282.5 17.4L282.9 17.7L283.5 18L284 18.2L284.5 18.4L285.5 18.7L286.2 18.8H286.7L287.8 18.9H288.2L288.5 18.8L288.8 18.3L288.4 18.1L288 18L287.9 17.8L288.1 17.6L288.7 17.5L288.4 17.4L288.2 17.3L283.2 16.5H282.9L282.5 16.6H282.2H281.5L280.7 16.5L280 16.4L278.3 16L277.4 15.8L276.7 15.7L276.6 15.9L276.3 16.1V16.2L276.4 16.3L276.6 16.5L276.9 16.7L277.2 16.8L277.4 16.9L277.5 17L277.4 17.1H277H276.8L276.6 17L276.4 16.9L275.7 16.6L275.3 16.5H275.1L274.8 16.4L273.5 16L272.7 15.8L271.7 15.6L271.3 15.5L270.9 15.3L270.5 15.2H270.2L269.6 15.4H269.2L269.1 15.5V15.6L269 15.7H268.6L268.4 15.8V15.9L268.5 16L269.5 16.6ZM285.5 22L285.1 21.6L284.9 21.5L284.7 21.4L284.4 21.3H284.1H283.1H282.9L282.7 21.4V21.6L283.7 22.2L284.6 22.5H284.8L285.7 22.3L285.5 22ZM288.2 22.4H287.6L286.9 22.5H286.6H286.4L286.3 22.6V22.8L286.5 23.3V23.5L286.3 23.8L285.9 23.9H285.4L284.9 24L285.4 24.2H285.7H285.9L286.5 24L287.1 23.9H287.3L288.6 24.1L289.9 24.3L291.3 24.4L291.9 24.5H292.5H293.2L294.2 24.6H294.8L293.8 23.9L293.4 23.7L293 23.6L290.3 22.9L289.6 22.7L288.8 22.6L288.2 22.4ZM390.9 31.2L391.1 31.4L391.4 31.6L392.7 32.2H392.8L393.2 32L394.3 31.9L394.5 31.7H394.9L395.5 31.8L396.3 32H396.5L397 31.9L398.2 31.7L399.2 31.6L399.7 31.5L400 31L399.8 30.8L399.5 30.7L399.3 30.6L398.4 30.4L397.7 30.2L397.3 30L397 29.9L396.7 29.8L396.1 29.6H395.8L394.5 29.5L394.1 29.4H393.8L393.6 29.5H393.3L392.9 29.4H392.6L392.4 29.5H392.3H392.2H392L391.9 29.6L391.8 29.8L391.5 29.9L391.4 30.3L391 30.6L391.1 30.8L390.9 31.2ZM369.9 35.3L370.1 35.4L370.7 35.5L371.4 35.7L372.1 35.9L374 36.2H374.7V36.1L374.6 36L374.2 35.7L374.1 35.6H374.3L374.1 35.4L374 35.3L373.8 35.2L370.6 34.8H370.2L370 34.9L369.9 35.1V35.2V35.3ZM346.8 32.1L347.1 32.2H347.5L347.6 32.1L347.1 31.9L346.7 31.8H346.4L346.8 32.1ZM291.4 17.4L291.5 17.6L291.7 17.9L292 18.2L292.4 18.5L294.1 18.8L294.9 19L295.7 19.2H296L297 19.3L297.4 19.4L298.3 19.6L298.7 19.7L299.3 19.8L301.2 19.9H302.5L303 19.8L303.8 19.6L304.1 19.4V19.3L303.5 18.7H303.3H303.2V18.8L303.1 18.9L302.7 18.8L302.2 18.7L301.5 18.5L300.3 18.4L298.9 18.3L298.6 18.4H297.9L297.5 18.3L297.4 18.2L297.3 18.1L297 17.9L296.7 17.8L294.4 17.7H294.3L293.8 17.9H293.1L292.7 17.7L292.3 17.5L291.5 17.3L291.4 17.4ZM354.9 36.8L355.4 37L355.9 37.4L356.3 37.7L356.5 37.8L357.1 37.9L357.6 38.1L357.7 38.2L357.9 38.4H358V38.3L357.8 38.2L357.5 38L356.8 37.7L356.4 37.4L356 37.1L355.6 36.8L355.5 36.7L355.8 36.6L355.7 36.4L355.3 36.1L355 36H354.9V36.1V36.3L354.7 36.5L354.9 36.8ZM271.8 21.5L271.1 21.4L271.4 21.6L271.6 21.7L272.3 21.9L272.8 22.1L274.1 22.5L274.5 22.6L274.6 22.5L274.5 22.3L273.5 22L271.8 21.5ZM190.5 9.9H191.3L191.8 10L192 9.9V9.8L191.5 9.6H191.3L189.3 9.7L189 9.8L190.5 9.9ZM188.2 9.6H188.4L188.7 9.5H189.1H189.2L189.1 9.4L189 9.3L188.8 9.2H188.4V9.4H187.8L187.9 9.5L188.2 9.6ZM173.7 10.2L174 10.3L174.8 10.4L175.3 10.3L176.1 10.1L176.9 9.8L177.1 9.7H178.2H179.3L180.2 9.6L180.4 9.7H180.6H180.7L180.9 9.5H182.5L183.5 9.3H183.9H184.4H184.6L185.2 8.9L184.9 8.6L184.6 8.4L184.2 8.2L183.9 8.1L183.6 8L183.2 7.9H182.9L182.4 8L181.8 7.9L181.7 7.8L181.5 7.7H181.4L180.6 7.6L180.2 7.5L179.8 7.3L179.4 7.2H179.1L179 7L178.7 7.2H178.5H178.2L178.1 7.3V7.5L178 7.7L177.7 7.8L177.6 7.7L177.5 7.1L177.4 6.9V6.7H177.5H177.7L177.5 6.6L176.7 6.4L175.7 6.3H175.4H175.3V6.4L175.5 6.6L175.9 6.8H175.6H175.3L174.9 6.7L174.5 6.5H174.4H174.2H174.1V6.6L174.3 6.8L173.9 6.9L173.7 7L173.8 7.1L173.7 7.2L173.8 7.3L174 7.5H173.9L173.8 7.6L173.9 7.7L174 7.8L174.4 8L174.6 8.1H174.4H173.8H173.6L173.5 8.2L173.4 8.4L173.5 8.5L173.7 8.7V8.8V8.9V9L173.8 9.3L173.9 9.4L173.5 9.7L173.4 9.9L173.5 10.2L173.3 10.3L173.7 10.2ZM173.2 15.3L173.4 15.5H173.5H173.6H173.7L173.9 15.4V15.2H173.8L173.6 15.1H173.3H173.2L173.3 15.2L173.2 15.3ZM173.8 14.3H174.1H174.2L173.4 14L173.3 14.1L173.6 14.3H173.8ZM207.8 14.4H208.2L208.6 14.6L209 14.7H209.1L209 14.6H209.1L208.9 14.5L208.3 14.3L208 14.2L207.8 14.3H207.1H207L207.2 14.4H207.8ZM238.9 25.1L239.4 25L239.3 24.9L238.7 24.7H238.4H238L237.8 24.8L238.4 25L238.9 25.1ZM194.4 12.4L194.9 12.3L194.8 12.2L194.6 12.1H194.5H194.2H193.9V12.3L194.1 12.4H194.4ZM246.4 22.5L246.8 22.6H246.9L247 22.5H246.9L246.6 22.4H246.3H246.1L246.2 22.5H246.4ZM214.6 20.5L214.8 20.7L214.9 20.9L214.8 21H214.2H214.1H214L214.6 21.2L215.4 21.4L216 21.6L216.3 21.7L217.9 21.9L218 21.6L218.4 21.5V21.4L218.3 21.3V21.2L218.2 21.1L217.8 21L216.9 20.9L214.6 20.7V20.5ZM265.3 16.9L265.6 17.1L265.9 17.3L266.1 17.5V17.6L266.4 17.8H267.1L267.5 17.7V17.6L267.2 17.5L267.1 17.4L267.2 17.1L267 17L266.2 16.8L265.9 16.7L265.5 16.5L265.1 16.4L265.3 16.6V16.9ZM303.6 15.7L303.3 15.6L303.1 15.5H303L302.7 15.6V15.7L303.5 15.9L303.6 15.7ZM411.8 116.8L411.7 117.2L411.6 117.8L411.2 117.9L411.3 118L411.5 118.2H411.7L412 117.8L412.2 116.9H412L411.8 116.8ZM408.6 120.2L407.9 120.9L407.8 121.5L407.5 121.6V122.5H407.8L408.1 122.3L408.3 121.8L408.4 121.7L408.6 121.6L408.8 121.3L408.7 121L409.2 120.3L408.6 120.2ZM411.5 102.7L411.2 102.4L410.9 102.3L410.7 102.4L410.9 102.6L411.1 102.7L411.3 102.8L411.5 102.7ZM412.7 114.2L412.6 114.5L412.7 114.6H412.9V114.4L412.7 114.2ZM413.1 107.8V107.4L413 107.2L412.7 107.1L412.9 108.1L413.2 108.4L413.6 108.5L413.8 108.3V108.2L413.1 107.8ZM413.7 103.7L413.4 103.3L413 102.9L412.8 103L412.7 103.3L413 104.1V104.4L412.4 104.5L412.3 104.8H412V104.9L412.3 105.1L412.7 105.5L412.9 105.6L413.3 105.7V105.6V105.3L413.5 105.2L414 105.1L414.1 104.7L414 104.1L413.7 103.7ZM413.1 110H413H412.8L412.9 110.3L412.8 110.5L412.9 110.6L413.1 110.7V110.5L413.3 110.2L413.1 110ZM401.8 131V131.1H401.9L401.8 131ZM403.6 129.4L403.1 129.6V129.7L403.2 129.9L403.5 130V129.9L403.9 129.7L403.8 129.6L403.6 129.4ZM400.8 127.3L400.2 127H399.9V127.9L399.8 128V128.2L399.7 128.4L399.8 128.6L399.7 128.9L399.4 129.4V129.6L399.6 129.9L400.1 130.2L399.8 129.5L400.1 129.1L400.2 128.7L400.1 128.5L400.4 128L400.5 127.9H400.9L401.1 127.5H401.4V127.3H400.8ZM402.6 130.3L402.7 130.4H402.8L402.6 130.3ZM405.9 123.1L405.8 123L405.7 122.9L405.5 122.8H405.3L405.1 122.9L404.7 123.7L404.2 123.8H404L403.4 123.4H403.3L403.4 123.7L403.6 124L403.3 124.1L403.2 124.5L403 124.6L402.9 125.4L402.6 125.7L402.5 126L402.7 126.4L402.4 126.8V127L402.6 127.4L402.9 126.9L403.2 126.8V126.3L403.6 125.7V125.5L403.5 125.3V125.2L403.9 125.3L404.2 125.2L404.3 124.6L404.7 124L405.1 123.9L405.5 123.6H406.1V123.5L405.9 123.3V123.1ZM90.5 122.5V122.7L90.7 123V122.9V122.7L90.5 122.3V122.5ZM41.2 51L41.1 50.9L40.9 50.8L40.6 50.9H40.5L40.4 51L40.5 51.2L40.7 51.3H40.9L41.2 51.6L41.4 51.5L41.3 51.4L41.4 51.3L41.2 51ZM129.3 45.8L128.9 45.7L128.6 45.6H128.1H127.8V45.7L128.5 46.2L129.1 46.5H129.5L129.6 46.4V46.2L129.4 46.1V46L129.3 45.8ZM343 86.8H342.8L342.5 87.1L342.4 87.3H342.6L343 87.2L343.3 87.3H343.5L343.3 86.7H343.2L343 86.8ZM117.5 36.6L117.6 36.3L117.5 36.2H117.2L116.9 36.5L117 36.6L117.2 36.7L117.5 36.6ZM414 102.6L413.9 102.5H413.7L413.5 102.8V103L413.7 103.1L414.3 103.3H414.4V103.2L414.3 102.8L414 102.6ZM429.7 87.5L429.3 87.3L428.9 87.1L427.8 86.5L427.5 86.2L427.4 85.9H427.2L426.3 85.8L426.2 86H426L427.1 86.4L427.5 86.6L427.8 86.8L428.1 87L428.8 87.3L429.3 87.6L429.6 87.7H429.9L430.3 87.9L430.9 88.2L430.4 87.7L429.7 87.5ZM434.4 88.3L433.6 88L433.1 87.9L432.6 87.7H432.4L432.8 87.9L433.7 88.3L435.6 89L435.3 88.8L434.4 88.3ZM344.2 87.6L344.4 88H344.5L344.8 87.7L345.1 87.9L346 88.5H346.1L346.2 88.4L346.3 88.2L346.4 88.1V88L346.2 87.7V87.4L346.4 87.2L346.2 87.1H345.8L345.4 87L345.3 86.9L344.1 86.6V86.7L344.2 87.2L344.1 87.3L344.2 87.6ZM406.6 74.3L406.7 74.4L406.8 74.5L406.9 74.2L407.3 73.7L407.8 73.4L408.6 73.2L408.4 72.9L407.7 72.4L407.1 72H406.9L406.5 72.5L405.6 72.8L405.8 73L406 73.2L406.4 73.7L406.6 74.3ZM447.1 53.5L446.8 53.4L446.5 53.3L446.2 53.2L445.7 53.1L445.2 53H444.9L444.7 52.9L444.6 52.8L444.3 52.7L444.2 52.6L444.3 52.5L444.2 52.4L443.8 52.3H443.5L443.4 52.4L443.3 52.3V52.2H443.5H443.8L444.2 52.1L444.4 51.9L444.5 51.8V51.6L444.1 51.3L443.6 51L443.3 50.9H443.1H442.8L442.5 50.8L443.3 50.7V50.6L442.8 50.2L442.6 50.1H442.4H442.1L442 50V49.9L440.9 49.5L440 49.3H440.1H440.4L441 49.4L441.6 49.6L441.9 49.7H442.1H442.4L443 49.8L443.2 49.9H443.4H443.6L444.3 49.8H444.6L445.1 49.9H445.2H445.3L445.2 49.8L444.6 49.5L443.8 49.3L443.3 49.1L443 49V48.9H443.1L443.8 49.1L444.3 49.2L444.8 49.3L445.2 49.4L445.9 49.5L446 49.4L445.8 49.2L445.2 48.8L445 48.7L445.1 48.5L445.3 48.2L445.6 48.1H445.8L446.1 48.2H446.3V48L445.7 47.7L445.3 47.6H444.3V47.5L444.1 47.4L443.8 47.3L443.5 47.2H443.3L443.1 47.3L442.9 47.4L442.8 47.3V47.2L442.6 47.1H442.4L440.6 46.5L439.7 46.3L438.7 46L437.4 45.5L436.2 45.1L435.4 45H434.8L434.2 44.9L433.6 44.8L432.4 44.7L432.6 44.8L434 45L434.3 45.1V45.2H434.1L433.2 45.1H432.9L432.5 45H432.4V45.1L432.7 45.3L433 45.5L432.9 45.6H432.6L432.3 45.4L432.1 45.2L432 44.9L432.1 44.8L432 44.7L430.9 44.6L430.5 44.5H430.2L429.9 44.6H428.5H428.3L428.4 44.7H428.6H428.9H429.1L429.4 44.8L429.8 44.9L430.2 45L430.7 45.2L431 45.4L431.3 45.6L431.6 45.9V46L431.5 46.1L431.8 46.3L432.2 46.4L432.8 46.5L433.2 46.6L433.6 46.8L433.8 47L433.9 47.2V47.3L434 47.4V47.5H433.9L433.3 47L432.7 46.7L432.5 46.8V46.9L432.6 47.2H432.5L432.3 47.1L431.9 46.9L431.5 46.7L431.2 46.5L430.7 46.3L430.4 46.2H429.9H429.7L429.3 45.9V45.7L428.6 45.3L428.3 45.2L428 45.1L427.4 44.8L426.9 44.4L426.7 44.2L426.4 43.9L425.9 43.7L425.5 43.6V43.7V43.8H425L424.9 43.5L424.5 43.3L424.2 43.1L423.9 43L423.4 42.7L417 41L416 40.8L415.4 40.6L415 40.5H414.8H414.7L414.5 40.4L414.4 40.3H414.5L413.8 40.1L411.5 39.5L411.1 39.4L411.6 39.6L413.4 40.1L413.8 40.2L413.7 40.4L413.5 40.5L413.3 40.3L412.9 40.1L412.6 40L412 39.9L411.2 39.8L410.4 39.7L410.1 39.5L409.7 39.3L410.3 39.5L410.6 39.6L409.8 39.3L408.9 39L407.5 38.8L407.2 38.7L406.6 38.5H406.5H406.3L405.6 38.4H405.5L405.4 38.3L404.4 38.2L404 38.1L401.7 37.4L400.7 37.3L400.5 37.2L400.3 37.1L400 37L398.6 36.8L397.1 36.7L395.2 36.3L393.8 36.2L391.9 35.8L390.7 35.5L390.1 35.4H389.6L388.7 35.5H387.4L386.1 35.4H385.2L384.6 35.3L383.6 35.1L383.5 35.2L383.8 35.5L383 35.4L382.3 35.2L381.3 35L379.7 34.9L377.5 34.7L376.5 34.6H375.5L376.4 35.2L376.7 35.5L376.8 35.8L376.7 36L376.9 36.2L378.2 36.3L379.5 36.9L380.5 37.3L381.4 37.7L381.8 38L381.7 38.7L380.6 38.8H379.5L378.4 38.4L377.4 37.9L376.1 37.6L374.9 37.4H374.4L373.9 37.3L372.9 36.7L372.1 36.3L371.6 36.1L371 35.9L370.6 35.8H370L369.5 36.4L369.3 36.6H369.1L366.8 36.4L366.1 36.3L362.8 36.2L361.4 35.8L360.8 35.7L360.3 35.8H359.8L359 35.7L358.5 35.8L357.2 35.9L356.8 36L356.5 36.2L356.2 36.7L356.4 37L356.8 37.3L357.6 37.8L358.3 38.3L358.4 38.5L358.2 38.6L358.6 39.2L358.7 39.5L358.2 39.6L358.3 39.4L358.4 39.2L357.8 38.4L357.4 38.1L356.7 37.9L356.2 37.7L355 37L354.3 36.6L353.6 36.1L353 35.9L351.1 35.7L350.1 35.5L349.5 35.2L349.2 34.8L348.8 34.5L348.6 34.2V34L348.3 33.7L347.7 33.3L347.2 33L346.5 32.7L346.1 32.6L344.5 32.1L342.2 31.6L340.1 31.3L338.5 31.2L336.5 31.1H334.5L334 31.3H332.6L331.3 31.5L330.2 31.8H329.4L327.9 31.9H327.2L324.7 31.4L325.2 31.3L325.3 31.2L323.6 30.6L322.9 30.4L321.4 30.1H320.9L320.6 30.2L319.6 30.5L319.4 30.6L319.6 30.2L319.7 30L319.8 29.8L319.5 29.7L319.3 29.6H318H317.9L317.4 29.4L317.2 29.3L316 29.1L315.3 29H314.6L314.4 28.9V28.8L314.3 28.7L314.4 28.6L314.8 28.5L316.2 28.4L316.3 28.2L316 28L315.7 27.9L314.8 27.6L313.8 27.4L312.1 27.1L310.5 26.9L308 26.8H307.6L307.4 26.9L307.2 27.2L307.1 28.1L306.9 28.5L306.5 28.7L305.2 28.9H304.9L304.5 28.8L304.4 28.7V28.6L304.3 28.5L304 28.4L303.9 28.3H304L304.5 28.4H304.9L305.5 28.2L305.2 27.9L304.8 27.8L304.4 27.4L304.3 27.3V27.2H304.4L305.4 27.5H305.6H305.9L306.2 28.1H306.5L306.8 27.8L306.9 27.5V27.1L306.7 26.9H306.1L302.5 27L301.5 27.3L301 27.2L300.4 27H300.8L301.2 26.9L301.3 26.7H301.5H302.3L303 26.8H304.9L304.6 26.5L304.1 26.4L303.1 26.3L302.4 26.2L301.6 26.1L299.9 26L299.1 25.9L297.5 25.8L297 25.7L293.4 25.6L291.8 25.4L291 25.2L289.6 25.1H289.4V25.2L289.5 25.3L290.8 25.7L291.2 26L291.6 26.1L291 26.3L290.5 26.4H288.4L288.2 26.5L287.9 26.9L288.2 27.1L288.7 27.4H289.3V27.3L289.5 27.2L290.8 27.3L291 27.4L290.7 27.5H290.3L290.4 28L289.9 28.1L290.5 28.2L291.1 28.3L291.8 28.9L293 29.4L293.4 29.6H292.5L291.9 29.7H291.6L290.7 29.3L289.9 29.1H289.6L289.5 29.3L288.8 29.2H288.6L288.4 29.3V29.4L288.5 29.6V29.7L288.7 29.8L289 29.9H289.2L289.9 30L289.4 30.1L289.3 30.2V30.3L289 30.4L289.3 30.5L289.6 30.6L289.7 30.7H289.6L289.1 30.6L288.6 30.5L287.7 30.2L287.2 30L286.5 29.8L284.2 29.3L283.2 29.1H282.7L282 29.2L281.8 29.4L281.1 29.5L280.8 29.7V29.9H279.3L278.1 29.7L277.2 29.5L276 29.1L274.7 28.6H274.6L274.4 28.5L274 28.3L273.6 28.1L273.5 28.2L273.6 28.7L273.7 29L274 30L274.3 30.4L274.5 30.6L274.8 30.8L274.6 30.9V31.2L274.8 31.8L274.7 32L274.5 32.2L274.3 32.3H273.9L273.4 32.1L272.8 31.7L272.5 31.6V31.8H272.2L271.4 31.6L270.3 31.2L269.4 31L267.4 30.1L266.6 29.8L266.1 29.5H265.5L265.1 29.3L265.2 29.2L265.8 29.1H266.4L265.6 28.7L265.2 28.5L264.8 28.4L265.2 28.6L265.3 28.8V28.9L265.1 29L262.5 27.9L261.1 27.4L260.4 27.2L259.7 26.9L260 27L261.4 27.4L262.3 27.6L264 28.1H264.8V27.9L264.2 27.4L263.4 27L262.8 26.8H261.4L260.9 26.7H261.1H261.4L261.7 26.6L262.1 26.3L262.3 26.2L262 26L261.1 25.7H260.2H260L260.1 25.5L260.3 25.4L260.5 25.2L260.4 25H260.3H259.9L259.7 24.9L259.5 24.7L259 24.6L258.5 24.5H257.7L257.6 24.4L257.5 24.3L257.1 24.2L257 24L256.8 23.9L256.6 23.8L255.9 23.7L253.9 23.5L253.8 23.6L253.9 23.9L253.6 24.2L252.9 24H252.8L252.6 23.9V23.8L252.5 23.7L252.3 23.6H252.2L252 23.7L251.5 23.8L251.4 23.9L251 24L250.8 23.8L248 23L247.2 22.9H246.8L246.1 23L246 23.1L245.9 23.3L245 23.2L244.9 23.3L245 23.6L245.4 23.9L245.6 24L245.9 24.2L246.5 24.5L247 24.7H246.9H246.8V24.8L246.9 25L247 25.3L246.8 25.4H246.4L245.2 25.2H245L245.1 25.3L245.8 25.4L245.9 25.5H245.8H245.5H244.8L244.2 25.4L243.6 25.2H243.2H242.2L241.5 25.3L240.4 25.2H238.8H238.4L237.3 24.9L236 24.7L234.3 24.3L233.8 23.9L233.7 23.6H234.4L234.8 23.5L234.6 23.4L234.4 23.3L233.2 23.1H230.4L228.2 22.9L225.3 22.8L224.4 23.1L222.7 23.2L222.4 23.4L221.7 23.5L222 23.7L222.6 23.9H222.8L223.1 24L223 24.1H222.9L222.7 24.2L222.6 24.3L223 24.6L223.2 24.9L223.3 25.3L223.2 25.5V25.7L223.6 25.9L223.9 26L224.6 26.1L224.9 26.2L224.8 26.3L223.9 26.2L223.4 26L223.2 25.9L222.9 25.7L223 25.5L223.1 25.4L223 25.1L222.7 24.8L222 24.2L221.3 24.1L220.8 23.9L220.9 23.5L220.8 23.3L220.4 23.1L219.6 22.7L219 22.5L218.7 22.4L218.4 22.3L219.1 22.7V22.9L219 23L218.2 23.1H217.6L216.7 23L215.5 22.7L215.1 22.5L214.7 22.2L215.1 22.1L215.2 22L214.6 21.9H214.1L214.3 22.3H213.9L212.1 22.1L211.8 22.2L211.5 22.4L211.4 22.6V22.9L211.7 23.1L211.9 23.2H212.8L213.5 23.1L214.1 22.9L214.4 23L214.7 23.1L214.6 23.2L214 23.4L213.1 23.9L212.6 24L211.8 23.9L211.7 24.2L211.6 24.3L210.5 24.5H210V24.6H209.7L209.4 24.7L209 24.9H208.1H207.4L206 25L205.7 25.1L205.6 25.2L205.7 25.4L205.6 25.6L205.1 26L204.5 26.1H203.9L204.3 25.9L204.6 25.5L204.8 24.4L205.9 24.3L206 24.2L206.2 23.5L206.4 23.4H207.6L208.4 23.2L209.4 22.2L210.3 22L210.7 21.8V21.7L210.6 21.5L210.4 21.4L210.2 21.3L210.9 21.1L211 20.8L212 20.5L212.6 20.2L213.7 20L214.1 19.7L215.3 19.2L215.9 18.4L215.6 17.9L215 17.7L214.4 17.6L213.9 17.4H213.7L213.4 17.5L212.3 17L211.3 16.7H211.7L213.4 17.1L214.1 17.2L214.4 17.3L214.6 17.4L214.7 17.6H214.9V17.5L214.8 17.2L214.5 16.7L214.2 16.5L213.6 16.6L212.5 15.9L212.1 15.7L211.6 15.5H211.1L210.9 15.6L211.2 15.7L211.5 15.8V15.9V16L211.2 16.2H210.8L210.9 16.1V15.9L210.6 15.7L210.3 15.6L209.5 15.1L208.9 15L208.5 14.9H208.2L207.9 15V14.9V14.7L207.3 14.5L206.8 14.4L206.3 14.3L205.6 14.1L204.8 14L203.2 13.9L202.2 14L200.7 13.9L199.1 14H198.4L197.9 13.9L197.6 14V14.2L197.8 14.5L197.6 14.6H197.4H196.3L195.7 14.7L195.3 14.6H194.7L194.4 14.4H194.8H195.1L195.2 13.9L195.5 13.6L195.7 13.3L195.1 13.1L194.2 13H193.8L193.7 13.1L192.7 13H192.3L191.7 13.1H191.4L190.9 12.8H190.2H187.6L187.8 12.7L189 12.6L189.9 12.4L190.3 12.1L190.9 12L190.5 11.8L190.2 11.7L189.7 11.6L188.7 11.5L187.8 11.4L187.3 11.2L185.6 11H185.2L184.5 11.3H184H183.6L182.8 11.6L181.4 12.5L181.2 12.8V13L180.9 13.1L181 13.4L181.3 13.6L181.6 13.7L182.1 13.9L182.2 14.2V14.4L182.5 14.5H183L184.2 14.6V14.7L183.4 14.6H182.8L182.1 14.5L181 14.6H180.1L179.3 14.7L177.6 14.6L177.5 14.7L178 14.8L178.4 14.9L179.6 15.2L180.1 15.3L180.9 15.6L181.6 16.2L181.5 16.3L181.4 16.5H181.3H181.1L181.3 16.4L181.2 16.1V15.9L180.8 15.8H180.7L180.5 15.7L179.4 15.5L178.8 15.4H178.3L178 15.3L177.5 15.5H177.2L176.9 15.6L176.8 15.7H176.3L176 16L175.8 16.1L175.3 15.9H175L174.5 16.2L173.7 16.3V16.2L173.6 16H173.3L172.2 16.2L171.9 16.4L171.6 16.3L172 15.9V15.7L171.5 15.6L170.6 15.5H170.1L169.4 15.6L168.2 15.5V15.6H167.9L167.2 15.5L166.7 15.6L166.4 15.7L165.6 15.6H165.4L165.3 15.8L164.8 15.7V16L165.1 16.2H165.3H165.5V16.1H165.6L166.3 16.3L166.4 16.2L166.6 16.1L167 16.2L168 16.1L167.9 16.2L166.9 16.4L164.9 16.6L164.5 16.7L163.3 16.8L162.7 17H161.6L159.9 17.2L158.9 17.6H158.2L157.1 17.9L156.8 18.1L155.3 18.6L154 18.4L153.7 18.5V18.7L153.9 18.8H154.4L154.8 18.9L155.3 19L155.4 19.2L154.9 19.7L154.6 19.9L154.2 20L152.8 19.6V19.8L152.7 19.9H152.2V20.2L153 20.3L153.8 20.4L154.6 20.6L155.2 20.8L155.8 20.9L156.2 21L155.5 21.1L154.7 20.8L154.3 20.7H153.9L153.5 20.8L153.3 21.1L153.8 21.2L154.8 21.3L155.2 21.4L157.2 22.4L157.6 22.5H158L158.2 22.6L157.9 22.8L157.8 23L157.6 23.3L155.9 23.4L155.5 23.5H155.4L155.3 23.6L155.2 23.7L155.3 23.9L155.6 24L156.1 24.1L158 24.7V24.8L157.5 24.7L156.9 24.5L156.2 24.3L155.4 24.1L155.3 24L155.1 23.8V23.7V23.6L155.5 23.3L156.1 23.2L156.7 22.9L157.2 22.6L156.9 22.5L156.7 22.4H156L154.6 22.5L153.8 22.6L153.6 22.9H153H152.7L151.8 22.8L151.1 22.9L149.4 23L149.2 23.1H145.1L144.3 23.2L142.3 23.4L142.4 23.6L142.6 23.7L142.4 23.9V24.1L142.6 24.3L142.7 24.5L142.9 24.7L143.2 24.9L143.6 25L143.9 25.1L144.3 25.3V25.6V25.9L144.4 26L144.7 26.2L145.2 26.6L145.3 26.7L146.2 27L146.7 27.1H147.5L148.1 27.2L149 27.4L149.3 27.5L149.4 27.6L149.8 27.9L150 28L151.1 28.5L151.4 28.6L152.6 28.7L153 28.8L153.8 29.3L153.9 29.4L154.1 29.6L154.2 29.8V29.9L154.1 30V30.6L154.2 31.2L154.9 31.6L156 32.3L156.4 32.6L156.9 33L157 33.3V33.5L156.8 33.7L156.3 33.8L155.8 33.9L156 34.1L156.2 34.3V34.5V34.6H155.9L155.6 34.5L155.3 34.3L155 34.1V33.9L155.2 33.5L155.1 32.9L154.9 32.5L154.6 32.1L154.3 31.8L153.8 31.6H153.5L153.3 31.8L153.4 32.4L153.2 32.9L153.3 33.1L153.4 33.3V33.4L153.1 33L152.9 32.7V32.3L152.8 32L152.6 31.8L152.2 31.4L152.1 31.2V31.1L151.9 30.6L152.2 30.5L153 30.1L153.1 30L153.2 29.6L153.3 29.5V29.3L152.9 29.1L152.5 29H151.9H151.4L150.4 29.2H149.4L149 29.1L146.9 28.4L146.6 28.1L146.4 28H146.2L145.5 27.8L144.1 27.6L142.5 27.1H140.2L139.6 27.2L139.1 27.4L138.7 27.7L138.5 27.8H138.1V27.9V28.1L138.4 28.2L139 28.1L139.6 28.2L140 28.3L140.4 28.6V28.7L139.5 28.9H138.9L137.4 28.4L136.9 28.3L135.9 28.4L135.3 28.7L135.1 28.8L135.4 29.1L136 29.6L136.4 29.9L136.8 30L138.1 30.3L138.8 30.4L139.9 30.7H140.5L141 30.6L141.9 30.8L142.7 31.4L143.1 31.6L143.4 31.7L143.8 31.8H144L144.2 31.7H144.7L144.6 31.9L144.5 32L143.5 32.1L143 32L142.3 31.8L140.7 31.2H139.2L139.1 31.4L138.5 31.2L136.9 31.1L135.9 30.9L134.8 30.7L134.6 30.6L134.5 30.4L134.7 30.2V30.1L134.5 29.7L133.6 29.2L133.4 28.7L133.6 28.6V28L133.7 27.8L133.8 27.7V27.6L133.6 27.4L133.4 27.3L133.1 27.1L133 26.9L132.9 26.7L132.4 26.4L131.9 26L131.3 25.8H130.8H130.6L130.5 25.9L131 26.2L131.5 26.5L131.8 26.7L132.1 27.1L132.4 27.6V27.8V28L132.1 28.2L131.5 28.5L131.1 28.6L130.3 28.7L129.8 28.9L129.1 30.2L129.4 30.4L130.1 30.6L130.6 30.8L130.9 31L131.6 31.5L133.8 32.8L134 33L133.9 33.4L133.6 34L133.5 34.3L133.6 35.5L133.7 35.8L134.1 36.1L134.7 36.5L135 36.8L135.1 37.5L135.4 37.7L135.8 37.8L136.7 37.7L137.9 37.9L138.5 37.8L139.2 37.4H139.5L140.6 37.5L142.5 37.9L144.5 38.4L145 38.6H145.5L146.4 39.5L147 40L147.3 40.3L147.6 40.7L147.3 40.8H147L146.8 40.9V41.5L146.9 41.8L147.4 42.3L149 42.5L150.1 42.6H150.8L151 42.7L151.1 42.8H150.3L148.8 42.9H148.2L147.9 42.8L147.5 42.6L146.9 42.4L146.6 42.3L146.1 42.2L146 41.7L145.3 40.5L144.9 40L144.3 39.6L143 39L142.4 38.6L141.9 38.3H141.5L141 38.4L139.8 38.6L138.7 38.7L137.5 39.1L137.4 39.4L137.6 40.2L138.1 40.6L138.6 40.9L139.1 41.4L139.4 41.7L139.6 42L139.8 42.4L139.7 42.6L138.7 43.5L138.6 43.8L138.8 44.6L138.7 44.9L138.2 45.4L137.8 45.6L135.8 46.4V46.6L135.9 47.2L135.4 47.5H135L133.9 47.2L133.3 47.1H132.7L130.6 47.2L129.6 47L128.7 46.7L127.9 46.6L127.2 46.4L127 46L126.7 45.7L126.5 45.6L126.4 45.5L126.5 45.4H126.8H128.2L128.5 45.3L128.7 45.4L129.2 45.7L129.8 45.9H130.2L130.5 45.7H130.6H130.8L130.6 45.8L130.3 45.9L130.2 46V46.2L130.8 46.4L131.3 46.5L131.8 46.4L132 46.2L132.6 45.9H133.1L133 45.6L132.5 45.2L132.1 44.9L132.9 45L133.2 44.8L134.1 42.9L134.8 42.5L135 42.3V42L134.9 41.6L134.6 41.2L134.5 40.9L134.6 40.5L134.9 40L135.1 39.8L135 39.6L134.9 39.5L133.7 39.1L132.5 38.7L132.1 38.5L131.7 38.2L131.4 37.8L131.3 37.6L131 36.9V36.6L130.4 35.6L129.5 34.4L129.2 34.1L129.3 33.9L129.4 33.7V33.5L128.8 32.3L128.5 31.8L127.8 31.2L126.3 30.7L125.5 30.2L125.4 30V29.9L125.8 29.7L126 29.4V29L126.1 28.4V28.2L125.9 27.4L125.7 27L125.4 26.3L124.9 26.1L124.4 26L123.5 25.9H123.1L122.2 25.6H121.9L119.9 25.7H118.7L118 25.8H117.6H117.4V25.7L117.5 25.6L117.4 25.5H117.2L116.7 25.6L116.4 26.5V27.4L116.5 28.6L116.4 29.1L116.2 29.6L115.7 30L114.9 30.4L114.3 30.6L113.5 30.8L113.4 31.3L113.2 31.5L113.4 31.6L113.7 31.5V31.8L113.6 32L113.7 32.1L113.8 32.2L114.1 32.3L114.8 32.2L115 32.3L115.3 32.5L115.6 33.3L115.7 34L115.8 34.2L116 34.4L116.2 34.6L116.1 34.9L116 35H115.6V35.6L115.7 35.9L115.8 36.2L116 36.4L116.2 36.6V36.5V36.3L116.4 36.2L118 36.6L118.5 36.8L119.2 37L119.5 37.2L119.9 37.8L120.8 38.4L121.4 38.7L121.8 38.8H122.1L122.4 38.7H123L122.9 39.1L122.8 39.9L122.3 40.6L122 40.7L121.3 40.4L120 40L119.7 39.8L118.2 39.2L117.6 38.8L116.9 38.7L115.9 38.5H115.7L114.9 38.3L114.1 38.2L113.8 38L113.2 37.9L112.6 37.8L111.7 37.6L111.4 37.7V37.4L110.4 37L109.2 36.7L106.9 36.2L105 36L102.8 35.9L100.8 35.6H100.5L100.3 35.7L99.8 36.1L99.1 36.2L98.9 36.4L99.5 36.8L100.8 37.9L101.2 37.8L101.6 38.3L101.4 38.6L101.1 39L100.8 39.2L100 39.3H99.3L99.4 39.6L99.7 39.9V40V40.2L99.6 40.3L99.5 40.4L99.3 40.5H99L98.2 40.3L97.6 40.2L97.4 39.6L97.6 39.4L97.8 39.3L97.9 39.2L97.4 38.8L97.1 38.6L96.9 38.3L96.8 38.2H96.5L95.2 38.5L95 38.8L94.8 38.6L93.3 39.4L92.6 39.7H92L91.2 39.5H90.3L89.7 39.4H89.4L88.8 39.6H88.2L87.6 39.9L87.2 40.3L87.3 40.9L87 41L86.5 40.7L86.3 40.6L86.1 40.7H85.7H85.4L85.1 40.8H85L83.9 40.7H83.6H83.2V40.6L83.3 40.5L83.8 40.4L84.1 40.3L84.5 40.4L84.7 40.2L84.5 39.9L84 39.6L84.1 39.4V39.1H84.2L84.3 39L84.1 38.9H83.8V38.8L84 38.7L85.2 38.6L85.5 38.5H84.7H83.7L82.8 38.8L81.2 39.4L80.5 39.8H80.7L81 39.9L81.4 40.2L81.6 40.3L81.5 40.5L81.1 40.6L80.9 40.7H80.7H80.5L80.3 40.6L80.4 40.5L80.5 40.4L80 40.2H79.8H79.6L78.7 40.4L78.1 40.6L77.5 40.7H76.9L76.6 40.8L76 41.1L75.6 41.2L74.9 41.6L73.1 42.2L72.6 42.3L72.3 42.2L72 42.1L71.9 42.2L72.1 42.4L72.5 42.7L72.4 42.9H71.9L71 43L70 43.2L70.1 43.4L70.2 43.6L70.1 43.9L70 44.2L70.1 45L70 45.2L69.6 45.4L67.6 45.8H67.2L67.1 45.9L67 45.8L66.6 45.7H66H65.7L65.4 45.6L65 45.3L64.3 44.6L63.1 44.3L62.5 44.1L62.3 43.9V43.7L63.2 43L63.5 42.8L65.1 42.6H65.8L66.4 42.5L66.3 42.1L65.5 41.6L64.6 41L63.7 40.4L62.7 40.2L61.5 40.1L59.2 40.2H58.9L57.3 39.8H57.1H56.9L57 39.9L57.1 40L59.3 40.9L59.5 41.1L59.7 41.4V41.5L59.8 41.6L59.9 41.9L59.7 43L59.5 43.8L59.4 44.2V44.5L59.7 44.7L60.3 44.8L60.9 45L61.3 45.3L61.4 45.5L61.6 46L61.9 46.4L61.6 47L61.4 47.3L61.2 47.9L61.4 48.3V48.5V48.7L62 48L61.8 47.8L61.5 47.7L61.2 47.6H60.9L60.7 47.7V47.5L60.9 47.2L60.7 47.1L60.5 47L59.6 46.7H59H58.5H58L57.6 46.5L57.2 46.4H56.9L56.6 46.6L56 47.3L55.3 47.8L54.3 48.1L53.5 48.2L53.3 48.3L52.9 48.7L52.5 49L51.3 49.5V49.7V50L51.5 50.3L51.8 50.6L52.6 51.3L53 51.5L53.3 51.8L53.6 52.2L53.5 52.3L52.9 52.2H52.5L52 52.5V52.6V53H51.5L50 52.5L48.8 52.2H48.6L48.3 52.1L48.2 52H47.7H47.4L47.1 51.9L45.7 51.1L44.6 50.8H44.4L44 50.9L43.9 51.5L43.6 51.7H43.3V52L43.5 52.2L43.6 52.3L44 52.5L44.9 53.2L45.3 53.5L45.6 53.6H46L46.8 53.5L47.1 53.6L47.4 53.8L47.5 54.2L47.8 54.6L47.9 54.8L47.7 55.1L46.8 55.3L46.3 55.6H46.1L45 55.3L44.3 55.2L43.3 55L43.1 54.9L42.6 54.4L41.6 53.9L41.2 53.8L40.6 53.9L40.2 53.8L39.5 53.5L39 53L38.9 52.5L39 52.4L39.1 52.3L38.8 52.1L38.7 51.7L38.6 51.4L38 51L37.6 50.6L37.2 50.2L37.5 50L37.7 49.8L37.9 49.3V49.1L38 48.9V48.7L37.9 48.5L37.6 48.2L36.7 47.6L35.9 47.3L34.4 47H34H33.8L34.1 46.9L34.4 46.8L34.5 46.6L34.1 46.5H33.8L33.3 46.3L33.2 46.2L33.3 46.1L33.1 45.8L32.4 45.7L32.2 45.6V45.5L31.7 45.2L31.1 44.9V44.6L30.6 44.4L30.2 44.2L29.6 44.1L29.4 44H30.7L32.1 44.2L32 44.3L31.9 44.4L32.4 44.8L32.8 45L33.7 45.3H33.8L34 45.2L34.4 45.3L34.8 45.4H35.5L36.3 45.6V45.7L36.2 45.8L36.5 46H36.8L37.3 45.8L38.8 46.4L39.2 46.5L41.5 46.8H42.5L43.1 46.9L44 47.1L44.9 47.4L45.6 47.5L46.9 47.6H47.6L49.2 47.4L51.2 46.8L52.2 46.3L53.6 45H54V44.3V44H53.7L53.3 43.8L53.2 43.4L53 43.2L52.5 42.3L52 42.2L51.7 42.1L51.3 42L50.9 41.9L50.4 41.5L49.9 41.3L49.5 41L49.2 40.9H49L49.2 41.1L49.3 41.3H48.6L46.5 40.5L46.2 40.4L46.1 40.5L45.5 40.4L45.3 40.2L43.5 39.3L40.4 38.3L38.3 37.7L36.8 37.4H36.7L36.6 37.5H36.2H35.8L34.5 37.3H34.2H32.8L32.7 37.4L32.3 37.9L32.1 38L31.6 38.1L31.7 37.9L32 37.8L32.1 37.4V37.2L32.2 37L32.1 36.8L31.9 36.7L31.6 36.8L30.9 37L30.8 36.9L31 36.7L30.9 36.6H30.6L30 36.5H29.4L29.2 36.3L28.7 36.2L28.5 36.1L28.7 36L30.2 36.2H30.6L30.8 36.1V36V35.8L30.6 35.7L29.6 35.5L29.1 35.3L28 35V35.1L28.2 35.4L28.1 35.5L27.8 35.4L27.6 35.5L27.4 35.8L27.1 35.9H26.9L25.8 35.6H25.3L25.5 36V36.2V36.3L25.4 36.4H25.2H24.8L24.2 36.2L23.8 36H23.7L23.8 36.2V36.3V36.4L23.7 36.5L23.6 36.6L23.4 36.7L23 36.8L21.9 37L21.8 37.1L21.5 37.7L21.4 37.8L21.3 37.9L20.9 38H20.7L20.2 38.2L19.9 38.3L19.5 38.4L19.6 38.5H20.2H20.3L20.4 38.6V38.7V38.8L19.8 39.6V39.8L20.1 40.3L20.5 40.8L21.5 41L22.3 41.2L22.8 41.6L23.7 42.2L24.1 42.4V42.5L24 42.9L23.6 43.3L23.2 43.6L22.8 44L22.5 44.4L22.2 44.8V44.9V45L22.3 45.1L22.9 45.6L23.1 45.9L23.4 46.2L23.7 46.5L23.9 46.8L24.2 47.1L24.4 47.2L24.6 47.4L24.9 47.7L25 48L25.5 48.8L25.6 49V49.2H25.4H25L24.6 49.3L24.9 49.5L24.7 49.8V50.3L24.5 50.5V50.6H24.6L25.1 50.7L25.2 50.8V50.9V51L25 51.1L24.8 51.2V51.3V51.4L24.9 51.6L25.1 51.8L25.3 51.9L26.1 52L26.2 52.1L26.3 52.3V52.4L26 52.7V52.8L26.2 53.1L26.4 53.4L27.2 53.7L27.5 53.9L27.6 54L27.7 54.2V54.4V54.6L27.5 54.9L27 55.4L26.5 55.6L26.7 55.8L27.8 56.4L28.5 56.7L29.4 57.1L30 57.4L30.2 57.6L30.5 57.9L30.8 58.1L31 58.3L31.1 58.4V58.5L30.9 58.9L30.8 59.2L30.6 59.6L30.4 59.9L29.8 60.5L28.9 61.2L28.7 61.4L28.3 61.8L27.6 62.5L27.4 62.7L26.8 63.3L26.5 63.5L26.3 63.7L25.7 64.3L25 64.7L24.4 65.1L24.2 65.3L24 65.5L23.7 65.6L23.6 65.7L23 66.2L22.1 66.9L23.1 66.8L24 66.4L24.2 66.5L24.4 66.6V66.8V67L24 66.8L24.1 67L24.5 67.4L25 67.6L25.8 68.1L26.6 68.2L27.1 68.1H27.5L28 68.4L28.3 68.7L28.5 68.8L28.8 69V69.2L28.7 69.3L27.4 69L25.9 68.8L25.7 68.9L25.5 69.1L25.4 69.3L25.3 69.4L25.1 69.5H24.8H24.4L24.1 69.4L23.9 69.5V69.8L23.7 69.9L23.3 69.8L23 69.6H22.8L22.7 69.8L22.8 70.1L22.9 70.4L22.8 70.6L23 70.7L23.2 70.9L23.3 71L23.2 71.1L23 71.2V71.3L22.9 71.4H22.7L22.6 71.5L22.5 71.8L22.3 72.3L22 72.7L21.7 72.9L21.6 73.1L21.5 73.3V73.5L21.9 74.6V74.8V75V75.2L22 75.4L22.2 75.7L22.5 76.1L22.6 76.4L22.8 76.5L22.9 76.6V76.7L22.8 76.8L22.2 77L22.1 77.1V77.2L21.9 77.4L21.8 77.6V77.8V77.9H22.1L22.2 78L22.3 78.3L22.7 78.5L23.1 78.7L23.2 78.8V79V79.2V79.3L23.1 79.4L23 79.7V80L22.8 80.5L23.2 80.4H23.3L23.4 80.5L23.5 80.8L23.7 80.9L23.9 81.1L24 81.3L24.3 81.5V81.6L24.5 82.1L24.6 82.4L24.7 82.6L24.6 82.9L24.5 83.1L24.9 83.4H25L25.2 83.3H25.7L25.9 83.4L26.1 83.6L26.3 83.8H26.5L26.9 83.6L27.1 83.5H27.3L27.9 83.7L28.2 83.8L28.3 83.9V84L28.2 84.2V84.4L28.4 84.6L28.6 84.7L29 84.5L29.1 84.4H29.3L29.5 84.3L29.6 84.2H29.8H30.1H30.6L31.3 84.4L31.4 84.5L31.8 84.8L31.9 84.9H32L32.2 85L32.4 85.1H32.6H32.7L32.8 85.2V85.4V85.9L32.7 86H33V86.1V86.2L33.2 86.4L33.5 86.7L33.6 86.9V87L33.3 87.4L33.2 87.5V87.7V87.9V88L33.8 88.3L34.2 88.5L34.3 88.6V88.7L34.1 89V89.1L34.4 89.2L34.6 89.4L34.8 89.8L35.2 90.2L35.9 90.5L36.4 90.7L36.5 90.8V90.9V91.1L36.4 91.4L36.3 91.6L36.5 91.7H37L37.6 91.8L38.4 92.1V92.2L38.3 92.3L38.4 92.4L38.5 92.5L39.2 92.9L39.3 93V93.2V93.3H39.1L38.9 93.4L38.6 93.6L38.5 93.8L38 94.1L37.7 94.2H37.4L36.8 94.1L36.6 93.9L36.5 93.8L36.3 93.7H36H35.6H35.5V93.9L35.4 94.2L35.3 94.4L35.4 94.5L35.6 94.7L35.9 95L36.2 95.2L36.3 95.3V95.4L36.2 95.5L36.3 95.7L36.6 96L36.5 96.1V96.5L36.6 96.9L36.7 97L36.9 97.1L37 97.3L37.2 97.7V97.8H37.3L37.6 97.9L37.9 98H38.1H38.3L38.6 97.9L38.8 97.8L39 97.2L39.1 97.1H39.2H39.4L39.8 97.2L40.3 97.3H40.6L41.3 97H41.7L42.2 97.1H42.7H43.1L43.4 97.2L43.7 97.4L44 97.8L44.4 98.5L45.4 99.2V99.3L45.3 99.4L44.9 99.5H44.6V99.6L44.7 99.7L44.9 99.9L45 100.2V100.4L45.1 100.6L45.2 100.7V100.8L45.1 100.9V101H45.2H46L46.4 101.1L46.7 101.2H46.8L47.1 101.1H47.5H47.7L47.8 101.2L47.9 101.4L48.1 101.6L48.2 101.7H48.4H48.5L48.6 101.8L48.5 101.9V102L48.6 102.2L48.8 102.6L48.9 102.7L49 102.9V103.1L48.9 103.3V103.4L49 103.7L49.3 104L49.5 104.1L49.7 104.4L50 104.5L50.3 104.3L50.6 104.2L51 104.3H51.3L51.5 104.5L51.7 104.7L51.9 104.8L52.1 104.7L52.5 104.8L52.7 105L52.9 105.1L53.1 105L53.3 104.8L54 104.6H54.4H54.5L54.7 104.5L55 104.4H55.2L55.5 104.7L55.8 104.9L55.9 105.2L56.3 105.6L57.1 106.1L57.4 106.3H57.6H57.7V106.2V105.9L57.8 105.8H58L58.6 106.1H58.9H59.2L59.6 106.4L60.1 106.6H60.4L60.7 106.5L60.9 106.4L61 106.5L61.1 106.7L61.3 106.9H61.5H61.8L62.3 107.2L62.8 107.5H63.1L63.3 107.4H63.5L63.7 107.5L63.8 107.6L63.7 107.8V108L63.9 108.2V108.4V108.6L63.8 108.8L63.6 109.1L63.4 109.4L63 109.5L62.8 109.6L62.9 109.8L63.1 110L63.5 110.1L63.9 110.2L64 110.3V110.4L63.8 110.5L63.5 110.4L63.4 110.5L63.3 110.7L63.2 111V111.3L63.6 111.4L63.8 111.5L63.9 111.7L64 111.9L64.1 112.1L64 112.2V112.3L64.1 112.4H64.3H64.4V112.5L64.2 112.8L64.1 113.3L64 113.6L64.1 113.9L64 114.1H63.8H63H62.3H62H61.5L61.3 114.2L61 114.7L60.8 114.9L60.4 115.1H60L59.8 115.3V115.6V115.9V116L59.7 116.1V116.2V116.3H59.8H59.9V116.4V116.5L59.8 116.6V116.7V116.9V117.1L60.6 116.8L60.9 116.6L61.5 116.5L61.4 116.6L61.1 116.7L60.8 116.9H61.2L62 116.8L62.2 116.4H62.7L62.9 116.7L63.1 117.1V117.2V117.3L62.7 117.4L61.8 117.8L61.3 117.9L60.7 118.1L60.9 118.4L61 118.7L60.5 118.6L60.1 118.5H59.9L59.3 118.8L59 118.7H58.7L58.9 119.1L59.3 119.6L59.5 119.7H59.8L60.6 120.3L61.2 120.9H60.9L60.6 120.8H60.2L60.1 121.1L60 121.4V121.3V121.1L59.8 121L59.6 121.2L59.4 122L58.9 122.6L58.8 122.9V123.1H58.9H59V123.3L58.9 123.5L57.7 123.8L57.6 123.9L57.2 123.8L56.8 123.5L56.4 123.3L56.2 123.4L56 123.5L56.1 123.6H56.3L56.7 123.8L56.5 123.9L55.7 124.2V124.3L55.8 124.4L56.7 124.6L57.6 125.3L57.9 125.6L58.2 126L58.4 126.2L58.7 126.4L59 126.5H59.4L59.8 126.4L61 127.5L61.4 127.7L62.4 127.9L62.7 128L64.8 129.5L65.5 130.1L66.8 131.1L67.2 131.3L67.3 131.1L67.5 130.8L67.7 130.7L68.3 130.8L68.9 130.9L69.3 130.8L69.8 131L70.3 131.2L70.8 131.4L71.7 131.6L72.1 131.8L72.5 132L74 132.1H74.1H74.2L74.7 132H75.1L75.6 132.3H75.9H76.2L76.6 132.4L76.9 132.6L77 132.8L77.3 133L78.2 133.3L78.9 133.5L79.1 133.6L79.6 133.8L79.7 133.9V134L79.6 134.2V134.4L79.7 134.5L79.9 134.6H80.3L80.4 134.5L80.7 134.4L81 134.3L81.4 134.1L81.9 133.9H82.1L82.3 134L82.5 134.1L82.8 134.5L83 134H83.1L83.3 134.1L83.7 134.2L84 134.3L84.2 134.4L84.7 134.8H85.4L85.7 134.9L85.9 135L86 135.1L85.9 135.5L85.8 136V136.1L86.1 136.3L86.5 136.5L86.7 136.6L86.9 136.7L87.2 136.8L87.6 136.9H87.8L88 137L88.5 137.2L88.6 137.3L89 137.4L89.1 137.6H89.2H89.3L89.5 137.5L89.7 137.6L90 137.9L90.4 138.2L90.6 138.4L90.7 138.5L90.9 138.6L91.2 138.7L91.4 138.9L91.7 139.4L91.9 139.5L92.6 139.7H92.8L93.4 139.8L93.6 139.7L93.9 139.2L94.1 138.7L94.4 138.6L94.9 138.4L95.2 138.2L95.3 138L95.5 137.6L95.6 137.4L95.3 137.2L95.1 137.1L94.9 137L94.6 136.5L94.3 136.1L93.7 135.4L92.7 134.4L92.5 134.3L92.3 134.2L92.2 133.7L91.9 133.4L91.5 133.2L91.4 133.1L91.3 133V132.3V132.1L91.2 131.7V131.2L91.3 130.5L91.4 130V129.7L91.2 129.9L91.1 131L90.8 130.2L90.4 129.4L90.2 129L89.9 128.7L89.5 128.4L89.1 128.1L88.7 127.9L88.2 127.8L88.1 127.7L88 127.5V127.3L88.1 126.9L88.3 126.7L88.6 126.5L88.7 126.3V126.1L88.8 126.2L89 126.3V126L89.1 125.8L89.3 125.3L89.4 124.8L89.5 124.5L89.6 124.2V123.7H89.7L89.8 123.6L89.9 123.5V123.4L89.8 123.1L89.6 122.8L89.7 122.9L89.9 123.1L90.1 123.3V123L90.2 122.9L90.4 123H90.6L91.3 122.8L91.6 122.7L91.9 122.5L92.5 121.9H92.7H92.9L93.1 122L93.3 122.1H93.4V122L93.2 121.8L93.1 121.6L93 121.4L93.2 121.3H93.4L94.2 121L94.3 120.9V120.7H94.7L94.6 120.5H94.4L93.6 120.1L93 119.8L92.4 119.6H92.3L92.1 119.5L92 119.3L91.9 119.1V119L92 118.9H92.1H92.2L92.4 119L92.7 119.1H93L93.2 119V118.8L92.7 118.1L92.2 117.5L91.7 116.9L91.5 116.7L91 116.2L90.5 115.7L90.1 115.2L89.9 115.1L89.3 115L88.2 114.9L87.8 114.8L87.5 114.9L87.2 115L86.9 114.8L86.6 114.5L86.4 114.2V113.9L86.3 113.5L86.1 113.1L85.9 112.9L85.4 112.8L84.7 112.5L84.4 111.9L84.5 111L84.8 110.4L85.1 110.1L85.2 109.9V109.7L85.1 109.5L84.9 109.3L84.6 109.1L84.4 108.9V108.4L84.5 107.7L84.7 107.1L85.1 106.8L85.4 106.6L85.5 106.4L85.4 106.1L85.3 105.8L85.4 105.6L85.5 105.4L85.6 105.2L85.8 105H86.1L86.4 105.1L86.9 105.5L87.7 106.2L88.2 106.7L88.4 106.8L88.8 107.1L89.1 107.2L89.6 107L90 106.8L90.1 106.7L90.2 106.5L90.1 106.2L90 106L89.8 105.7L89.6 105.2L89.3 104.5L89.1 104.3H89.2H89.5H89.7L90 104.1L90.4 103.8L91.1 103.3L91.2 103L91.3 102.7L91.5 102.5L92 102.4L92.4 102.3L92.7 102.1L93.2 101.9L93.6 101.8L93.8 101.7L93.9 101.5L94.3 101L94.6 100.7L94.9 100.4L95 100.2H95.3L95.7 100.3L96.2 100.4L96.6 100.6L96.7 100.8L96.8 101L97 101.1H97.2H97.4H97.8L98.2 100.8L98.8 100.4L99.4 100.3L99.8 100.4L100.2 100.7L100.5 101L100.8 101.1H100.9H101L101.3 101H101.6L101.9 101.1H102.3L102.8 101H102.9H103.2L103.6 101.1L103.9 101.3L104.5 101.9L104.8 102L105.4 102.2L105.7 102.4L106.1 102.7L106.3 102.9L106.7 103.2L107.2 103.7L107.4 104.1L107.6 104.4L107.8 104.6H107.9L108 104.5L108.1 104.3V104L107.9 103.5L107.7 103.1L107.5 103L107.4 102.9V102.7L107.6 102.6L107.9 102.7L108.4 102.9L108.9 103.2L109.6 103.7L110.2 104L110.8 104.2L111.3 104.3L111.6 104.2L111.9 104L112.2 103.8L112.3 103.6L112.4 103.3L112.9 103L113.3 102.7L113.5 102.8L113.7 102.9L114.2 102.7L114.4 102.6L114.9 102.5L115.4 102.6L115.9 102.9L116.3 103.1H116.6L116.9 103L117 102.8L117.1 102.6L117.2 102.4L117.8 102.5H118.2L118.7 102.6L119.4 102.9L119.9 103.3L120.5 103.8L120.8 104L121.1 104.1H121.3L121.6 104.2L122.5 104.3L122.6 104.4L122.7 104.5V104.8L122.8 104.9L123.4 104.7L123.5 104.6L123.6 104.2L123.7 103.8L123.8 103.6H123.9L124.1 103.7L124.4 103.9L124.8 104.1L125.2 104.2H125.5H125.9L126.8 104.1L127.6 103.8L128 103.5L128.1 103V102.4L128.2 102.1L128 101.7L127.5 101.4L127.3 101.3L126.2 101.1L126.1 101H126L124.9 100.7L124.4 100.6L124.2 100.4L124 100.1L123.6 99.9L122.9 99.7L122.7 99.5L122.8 99.3L123.2 99.1L123.7 98.7L123.9 98.6H124.4L124.8 98.3L125.1 98.1L125.2 97.9L125.1 97.7L124.4 97L124.1 96.6V96.3L124.3 96L124.4 95.8L124.5 95.5L124.6 95.4L125.1 95.3H125.7L126.1 95.4H126.7L127.2 95.5H127.5L127.7 95.4L127.8 95.3L127.7 95.1L127.4 94.9L126.6 94.7L126.2 94.5H126L125.6 94.4L125.2 94.3H124.9L124.7 94.1V93.8L124.8 93.7L125 93.6H125.3L125.6 93.5L125.7 93.4V93.3L125.6 93.2L125.4 93.1H125.2L125 93.2L124.8 93.3L124.3 93.2L123.9 93.1V93L124.1 92.8L124.2 92.6L124.1 92.4L124 92.1V91.8L124.2 91.6L124.5 91.5L125.3 91.7L126.3 91.9H126.5V91.8L126.6 91.7H127.9L128.1 91.6L128.2 91.5L129.5 91.4L129.6 91.3L129.8 91.2H130.1H130.4L130.8 91.1L131.1 91H131.2H131.6L132 90.9H132.1V90.8L132.4 90.6L133.1 90.5L133.3 90.6H133.7L134.1 90.5L134.4 90.4L134.6 90.5L134.9 90.6L135.1 90.5V90.2V89.9L135.3 89.8H135.5L135.6 89.7L135.7 89.6H136.4L136.9 89.3L137.1 89.4H137.9L138.8 89.2L139.4 89.1L140.3 88.9L140.7 88.8L141.3 88.7L141.9 88.6L142.2 88.3H142.5H142.9L143.1 88.2L143.2 88.1V87.9L143.1 87.7L143 87.5L143.2 87.4H143.6H143.8L144.2 87L144.5 86.8L144.8 86.7L145.6 86.8L146.3 86.9L147.1 87.1L147.6 87.3L148 87.5L148.3 87.6L148.6 87.7L148.9 87.6L149.1 87.5L149.2 87.3L149.4 87.2L150.1 87.1L150.3 87.3L150.8 87.8L151.3 88.5L152 89.4L152.3 89.8V90L152.4 90.3L152.5 90.6L152.4 91L152.6 91.2L153.4 91.4L154.4 91.3L155 91.1L155.4 91.2L155.5 91.1V90.8L155.7 90.7L156 90.9L156.3 91.2L156.6 91.4L156.7 91.7L156 91L156.2 91.1L156.4 91L156.5 90.9V90.8L156.4 90.7L156.3 90.6V90.5H156.4H156.8L157.3 90.6L158.1 91.1L158.5 91.2H158.6H158.9L159.2 91.1L159.4 90.9V90.8H159.5L159.7 90.9L159.8 91.1V91.3L159.5 91.5L159.1 91.7L159 92.1L159.1 92.5L159.3 92.7L159.5 92.8L159.6 93H159.7L159.9 92.9L160.3 92.5L160.5 92.4L160.9 92.3H161.5L162 92.4L162.3 92.6L162.6 92.7L162.7 92.6V92.4L162.6 92.2V92L163.1 91.6L163.4 91.3H163.5L163.8 91.4H164L164.4 91.2L164.7 90.9V90.7L164.6 90.5L164.7 90.4L165.3 90.3H165.4L165.9 90.1L166.5 89.8L166.8 89.6L167.4 89.5L167.5 89.4L167.7 89.3L168 89.1H168.2V89.5V90L168.1 90.1H167.4L167.5 90.2L167.7 90.4L167.8 90.5L167.9 90.6L168.2 90.8L169.1 91.2L170.3 91.8L171.6 92.4L172.5 92.8L172.9 93L173.2 93.2L174 93.8L174.7 94.4L176 95.5L177.2 96.5L178.5 97.7L179.2 98.4L180.7 99.8L181.1 100.2L181.9 101L182.6 101.8L183.3 102.5L183.6 102.6L183.5 102.4V102.3L183.6 102.2L183.8 102H183.9H184.1L184.3 101.9V101.7L184.1 101.3L184 101.1V100.9L184.1 100.8L184.3 100.7H184.5L184.6 100.5L184.8 100.4H185H185.2L185.4 100.5L185.6 100.7H185.8H186.1L186.2 100.9V101.2V101.4L186.3 101.6L186.5 101.7L187.1 101.6H187.3L187.4 101.8L187.5 101.9L187.6 102.1V102.3L187.8 102.4H188.3L188.6 102.3H189.1L189.7 102.5H190L190.3 102.4L190.8 102.5L191.1 102.3L191.3 102.1V101.9L191.4 101.8H191.9H192.2L192.3 101.6L192.5 101.5H192.8H193.1L193.9 101.7L194.4 101.9L194.9 102.2L195.2 102.4L195.5 102.8L195.9 103.1L196.3 103.4L196.5 103.7L196.9 104.3L197.2 104.5H197.4L197.7 104.6L198.1 104.7L199 105.1H199.3L199.5 105.2L199.6 105.4V105.6L199.8 105.8L200.1 106.1L200.4 106.4L200.8 106.7L200.9 106.9L201.1 107L201.3 106.9L201.7 107L202.9 107.2H203.1L203.3 107.4H203.5H203.7H204L204.1 107.2L204.2 107L204.5 106.8L204.7 106.5L204.9 106.3H205.1L205.3 106.4L205.4 106.6L205.3 106.7L205.2 106.9L205.3 107.1H205.6L206 107.4L206.7 108L206.9 108.1L207.2 108.2L207.5 108.3L207.8 108.4L208.1 108.7L208.3 108.9H208.6L208.8 108.8L208.9 108.7H209.1L209.4 108.6L209.7 108.5H209.9H210.3L210.4 108.4L210.5 108.3L210.7 108.2V108L210.6 107.7L210.7 107.4L211.1 107.3H211.3H211.5H211.8H212.1L212.3 107.4L212.5 107.5H212.8V107.4L212.7 107.2H212.8L213 107.3L213.1 107.4H213.2L213.5 107.3L213.7 107.2V107L213.8 106.9L214 107H214.3L214.5 106.8L214.8 106.7L215 106.6V106.5L214.8 106.2L214.7 105.9L214.9 105.7H215.3L215.5 105.6L215.4 105.3L215.5 105.2H215.6L215.9 105.1L216.1 105L216.2 104.9L216.6 104.7H217L217.1 104.6L217.2 104.4L217.4 104.3L217.6 104.1L217.8 103.9H217.9L218.4 103.8H218.6H218.7H218.9V103.6L219.1 103.4L219.3 103.3V103.2L219.4 103L219.6 102.9H220.1H220.6H220.9L221 102.6V102.5V102.4L221.2 102.3L221.5 102.5L221.7 102.6L222 102.7L222.2 102.8H222.4L222.5 102.7V102.4H222.7H223L223.1 102.5L223.2 102.6L223.4 102.8L223.8 103H224.2H224.3H224.7H225.1H225.5H225.6H226H226.6H226.9L227.5 103.1L227.7 103.3L228 103.7L228.3 104.1L228.5 104.4L228.7 104.6L228.9 104.7L229.1 104.8L229.4 105L229.7 105.2H229.9L230 105.1H230.3H230.7L231 105.2L231.2 105.4L231.5 105.5H231.7H232.2H232.4L232.6 105.6H232.9L233 105.5L233.4 105.4L233.6 105.2H233.8L234 105.3L234.2 105.4L234.3 105.3V105.2H234.4L234.6 105.3L235 105.4L235.4 105.6H235.6L235.8 105.5H235.9L236.1 105.6L236.3 105.7L236.4 105.6L236.6 105.5L237.5 105.6L237.8 105.8L238 105.9L238.2 106.1L238.5 106.2H238.9L239 106.1L239.2 105.8V105.5L239.3 105.4H239.5H239.7H239.9L240.1 105.2L240.3 105.1L240.5 104.9V104.8V104.5V104.3V104L240.4 103.5L240.3 103.3L240.2 103.1L240 103H239.8L239.5 102.9L239.3 102.7L239.1 102.5L238.9 102.2L238.8 102L238.7 101.9L238.5 101.8L238.2 101.6L238 101.4L237.9 101.2V100.8L237.8 100.6V100.5L237.7 100.4L237.6 100.1L237.7 100V99.7L237.8 99.6H238L238.1 99.5L238 99.2V99V98.9L238.1 98.7L238.8 98.4L239 98V97.8L238.9 97.4V97.2L239.1 97.3L239.5 97.5H239.7L240 97.6L240.8 97.9L241.2 98H241.5L241.9 98.1L242.2 98.3L242.7 98.6L243.1 98.7H243.7H244.4H244.6L245.2 98.9L245.9 99.1L246.5 99.3L247 99.4L247.3 99.5L247.6 99.6L247.8 99.5H248.1L248.9 99.7L249.5 99.8L250 99.9L250.2 100L250.3 100.2V100.4L250.5 100.8L250.7 101L250.9 101.3L251.1 101.6L251.2 101.9L251.3 102L251.5 102.1L251.7 102.3L251.8 102.5V102.6L251.9 102.8L252.1 103H252.3H252.5L252.9 103.2L253.5 103.5L253.8 103.6L254.2 103.7L254.8 103.8H255.2L255.5 103.9L255.8 104.1L256.2 104.2L256.5 104.3L257 104.4L257.2 104.3L257.4 104.2H257.6L257.9 104.3H258.3L258.6 104.2L258.8 104L259 103.8L259.3 103.7H259.7L259.9 103.6L260.7 103.4H261L261.2 103.3L261.4 103.2H261.7L262.2 103.3L262.7 103.4H263.3L263.7 103.5L264 103.6L264.5 103.7H264.9H265.5L265.9 103.8L266.5 104L266.9 104.2L267.4 104.6L267.8 104.8L268.2 105H268.6H269.5L270 105.1H270.4L270.5 105.2L270.6 105.5L270.8 105.9L270.9 106.1L271.1 106.2H271.2L271.4 106.4L271.7 106.5L272.1 106.6L273 107.1L273.5 107.3L273.8 107.4H274.1H274.7H275.7L276.4 107.5L276.7 107.6L277.4 107.7L278.2 107.8L278.9 107.9L279.2 107.7H279.5L279.9 107.8L280.3 108H280.5L280.8 107.9L281.7 107.4L282 107.2L282.3 107.3L282.5 107.2L282.7 107.1L283.1 107H283.4H283.7H284.1L284.8 106.7L285.1 106.6L285.8 106.7L286.1 106.6L286.3 106.4L286.6 106.2L286.5 105.9V105.5L286.8 105.2L287 104.9L287.2 104.7L287.6 104.5L288 104.4L288.3 104L288.6 103.8L288.8 103.7L289.1 103.8L289.6 103.9H290H290.2L290.7 104.1L291.2 104.3L291.7 104.6L292.5 105L292.9 105.1L293.1 105.2H293.6H294L294.2 105.1L294.5 104.9L295 104.7H295.3L295.8 104.8L296.5 105L296.8 105.2L297.1 105.4L297.9 105.7L298.4 105.9L299.2 106.2L299.9 106.3L300.7 106.6L301.1 106.7H301.3L301.8 106L302.3 105.4L303 105L303.6 104.9L304 104.8L304.2 104.6V104.3L304 103.8L303.7 103.5L303.3 103.4L303.2 103.3L303.3 103.2V103L303.2 102.7V102.4L303.3 102.1V101.8L303.1 101.5V101.2L303.2 100.9V100.6L303.1 100.3V100L303.2 99.4L303.1 98.7L303.3 98.2L303.8 97.7L304 97.2L303.9 96.7L303.6 96.3L303.1 95.9L302.8 95.5L302.7 95.1L302.4 94.8L301.9 94.6H301.4L300.9 94.7L300.5 94.6L300.2 94.3V94L300.4 93.8L300.7 93.3L301 92.5L301.5 92.1L302.7 92L303.5 91.8L304.3 91.5L304.9 91.4L305.1 91.5H305.5H306.1L306.7 91.4L307.2 91.2H307.6L308 91.3H308.2H308.3H308.4L308.5 91.2L309 91.3L310 91.7L310.6 91.9H310.8L311.1 92L311.5 92.3L311.9 92.5L312.5 92.6L313.2 92.9H313.4V92.7L313.5 92.6H313.8L314.3 92.7L315.1 93L315.6 93.1H315.7L315.9 93.2L316.1 93.3L316.2 93.5V93.6L316.4 93.7H316.6L316.9 93.8L317.3 94.1L317.6 94.2L317.8 94.3L317.9 94.4L318 94.5V94.6V94.7L318.1 94.8L318.3 94.9L318.7 95L318.9 95.1L319 95.2L319.2 95.3L319.5 95.5L319.7 95.6V95.7L319.8 95.8L320 95.9L320.2 96.2L320.3 96.4L320.6 96.6L320.9 97L321.3 97.4L322.1 97.9L322.4 98.2L322.6 98.5L322.8 98.7L323.1 98.8L323.3 98.9L323.4 99.1L323.6 99.2L323.8 99.3L323.9 99.5L324.1 99.7L324.3 99.8L324.5 100L324.7 100.3L325.3 100.7L326.2 101.3L326.8 101.8L327.1 102.1L327.3 102.4V102.6L327.4 102.8L327.6 102.9L327.7 103L327.8 103.2L328.1 103.4L328.9 103.7L329 104.2L329.2 104.6L329.5 105L329.8 105.3L330.2 105.5L330.5 105.7L330.7 105.9L331.1 106.1L331.8 106.3H332.5L333.3 106.2H333.8L334.1 106.3L334.3 106.4L334.4 106.6L334.6 106.7L335 106.8L335.3 106.9L335.5 107.1H335.7L335.9 107H336.1L336.3 107.1H336.4V107H336.6H336.8L337.1 107.2L337.4 107.3H337.7L338.3 107.6L339.6 108.5L340.3 108.8L340.8 108.9H341.4L341.8 109.2L341.9 109.6L342 109.9L342.2 110L342.6 110.3L343 110.5L343.2 110.7L343.4 110.9L343.6 111.2L343.7 111.7L344 112.1L344.6 112.4L345 112.7L345.3 113L345.5 113.2L345.7 113.3H346.1L346.6 113.2H347.1L347.5 113.4H348.2L349.2 113.3H349.9L350.2 113.4L350.3 113.2L350.2 112.7L350.3 112.5H350.5L350.7 112.4L350.9 112.1L351.2 111.9H351.7H352.2L352.4 111.8L352.5 111.5L352.9 111.2L353.8 110.9L354 110.8H354.1L354.5 110.9L354.9 111L355.4 111.3L355.6 111.5L355.7 111.7V111.8V111.9V112.1L355.9 112.3L356.3 112.7L356.6 113L357 113.3V113.4V113.6L356.9 114L356.8 114.1L356.7 114.2H356.4H356.3L356.2 114.3V114.4V114.5L356.1 114.7L356.2 114.9L356.4 115.1L356.6 115.4L356.5 115.6L356.6 115.9V116L356.7 116.3V116.4L357 117V117.4V117.8L357.2 118.1L357.4 118.3V118.4V118.5L357.5 118.7V118.8L357.3 118.9V119.1L357.5 119.4L357.6 119.6V119.8V119.9L357.5 120L357.4 120.1L357.5 120.4L357.6 120.6V120.8L357.8 121V121.2L357.6 121.3L357.5 121.4H357.4L357.3 121.6L357.5 122.3L357.7 122.7L358 123L357.8 123.2L357.7 123.4L357.5 123.3L357.3 123.2L356.9 123.1H356.7L356.3 123L355.6 122.9L354.9 122.7L354 124L353.7 123.9L353.4 123.8L353.1 123.6L353 123.7V123.9L352.8 124V124.3V124.5L352.7 124.8L352.6 125.2L352.1 125.4L352 125.5H351.6L351.5 125.6L351.4 125.8L351.5 126L351.7 126.2L352.1 126.6L352.3 126.8L352.7 127.3L354 128.8V129.1L354.5 130.2L354.6 130.4L354.8 130.7L354.9 130.9L355 131L355.2 131.1L355.3 131.2L355.4 131.4V131.6L355.5 131.9L355.6 132.3V132.5V132.6V132.7L355.8 133L355.9 133.2L355.7 133.3L355.6 133.4H355.3H355.1L354.9 133.5L354.5 133.6L354.3 133.7L354.2 133.8V133.9V134L354.3 134.1H354.6L354.9 134.3L355 134.5L354.9 134.6L355.1 134.8L355.4 135L355.6 135.2L355.7 135.4L355.8 135.5L355.9 135.4L355.8 134.7L355.1 134.2L355.2 134.1L355.9 134.2H356.1L356.6 134.3L356.7 134V133.7L356.9 133.5V132.8L357.1 132L357.2 131.8L357.6 131.6H357.7L357.9 131.7L357.8 132.1L357.9 132.4H358.2L358.4 132.3L358.8 131.8L358.9 131.5L359.1 131.8L359.8 133.1L360.3 133L360.7 133.1H361.1L361.8 133.4H362H362.2L362.6 133.7L363 133.8L363.4 133.5L364.1 133.3H364.5L365.2 132.9L365.5 132.5L366.6 131.6L367 131.1L367.5 130.7V130.1L367.9 129.5L367.8 129.3V129L367.9 127.5L368.1 127.3L368.5 127.1V126.8L368.4 126.4L368.7 125.8L368.8 125.2L369 124.5V124.2L369.5 123.4L369.8 122.5L370.2 121.8V121.4L370.5 120.2L370.3 119.4L370.5 119.1L370.2 118.3V117.7L370.1 117.4V117.1L370.6 115.9L370.5 114.9V113.9L370.7 113.6L370.9 113.2V112.9L371.3 112.4L371.4 112L371.3 111.6L370.8 110.7V110L370.6 109.9L370.4 109.7L370.3 109.4V109.3L370.2 109.1L370.1 108.8V108.6L369.6 107.6L369.1 107L368.8 106.8L368.6 106.5V106V105.9V105.8L368.3 105.7L368.1 105.6L366.8 104L366.2 103L366 102.3L365.9 102.1L365.4 101.4L365.3 100.7L365 99.9L365.3 99.5V99L365.4 98.8L365.1 98.3L365 97.8L364.6 97.6L364.3 97.5L363.5 97.1L363.2 96.8V96.4L363 96L362.4 95.3L361.7 95.1L360.6 94.6L360.4 94.4H360.5L361.6 94.7L361.8 94.4V94.1L361.4 93.7L360.8 93.5L359.8 93.1L359.6 93L358.3 92.6L356.6 91.8L355.7 91.1L355.4 90.9L354 90.3L353.7 90.1L353.4 90L352.5 90.3L351.8 90.2L350.3 89.8V89.9L350.7 90.2L350.9 90.5L351.3 90.9L351.8 91.5L352.1 92L352.2 92.6L352.1 92.7L351.8 92.8H351.6L351.5 92.5L351.6 92.2V91.7L351.2 91.2H351H350.9L350.7 91.4L350.9 92.1L350.4 92.6L349.9 92.8L348.8 92.9H348.6L348.4 92.8L348.5 92.6L348.9 92.3L348.8 91.7L349.1 91.6V91.4L348 91L347.4 90.8L346.8 90.5L346.9 90.4H347L347.1 90.3L347.2 89.8H346.8H346.4L346 90.2V90.4L346.4 90.7L346.7 90.8L347 91.6L346.5 91.5H346.1L346 91.7L345.7 91.6L345.2 91.1L344.9 90.6L344.1 89.5L343.9 89.1L343.6 88.7L343.3 88.5H343H342.6H341.6L340.6 88.6L339.1 88.2L338.7 88.1L338.4 88L337.9 87.6L337.8 87.4V87.3L338.1 86.7L338.6 86.5L339.2 85.8V85.2L339.3 85L339.9 84.6L340.2 84.2L340.4 83.8L340.7 83.5L340.8 83L341.1 82.9L341.3 81.8V81.6L341.1 81.3V81.2L341.3 80L341.8 79.6L341.9 79L342.4 78.8L342.5 78.7V78.3L342.8 78.1L342.9 78L342.8 77.5L343.7 77V76.8L343.1 75.5V75.2L343.3 74.8L343.9 74.4L344.2 74L344.3 73.7L344.2 72.8L344.5 72.3L344.9 72L346.2 71.5L347.2 71.6L347.9 71.4H348.6L349.7 71.5L352.6 71.4L353.3 71.5L353.7 71.7L354.5 72.2L354.9 72.3L355.4 72.1L355.1 71.4L355.3 71.3L356.3 71.6H357L358.7 71.9L359.1 71.8L359.3 71.5L360.3 71.4L361.5 71.9H362.2L362.6 71.8L362.4 71.5L362.1 71.4L361.8 71.5L361.4 71.2L361.3 70.9L361.9 71.1H362.5H362.7L362.5 71L362.3 70.9L361.9 70.6L362.2 70.2L362.5 70.1H363.1L365.1 70.5H365.5L366 70.7L366.7 70.8L366.5 70.9V71H366.8L367.3 71.1H367.6L367.7 71V70.8V70.6L367.8 70.5H368.2L368.8 70.6L369.3 70.7L370.9 71.4L371.4 71.5H371.8H372L372.5 71.7L372 71.9H371.3L370.6 71.8L369.8 72.1L371.1 72.8H372.2L373.1 72.6L373 72.3L373.3 72.2H373.5L374.3 72.5L375.1 72.6H375.2V72.1H375.5H375.7L375.5 71.7H376.4L377.4 72.1L377.9 72.2L378.4 72.1L378.5 71.8L378.6 71.7L379.6 72L379.8 71.8H380.3H380.7L380.4 71.5L380.1 71.2L379.2 70.9L377.8 70.6L377.4 70.8H377.2H377L376.7 70.6L376.6 70.3L376.5 70.1L376.2 69.8L375.9 69.4L376 69.2H376.1L375.7 68.4V67.4L376.3 66.8L376.6 66.3V66L376.3 65.2L376.5 64.6L376.7 64.4L376.8 64.2L376.1 63.5L376.2 63.3L376.3 63.2L376.4 62.8L376.9 62.5L377 62.3H377.9L378.8 62.4H379L379.3 62.2L379.9 62.3L380.5 62.2L380.9 61.9H381.2L381.6 62L382.4 62.4L382.7 62.5L383.1 62.7L383.4 62.6L384.1 62.1H384.2H384.4L384.7 62.3L384.9 62.5L385.3 63L385.5 63.4L385.7 64.2V64.3L386 64.5L386.5 64.9L386.6 65.3L386.7 65.5H387L387.1 65.3L387.4 65.2H387.7L388 65.3L388.3 66L388.6 66.4L388.7 66.5L388.9 66.7L389.1 66.6L389.2 66.5L389.4 66.4H390.1L390 65.9L390.1 65.7L390.9 63.7L391 63.3H391.3L391.7 63.4H391.9L391.8 63.3V63.2H392.1L392.7 63.6L393.1 63.8H393.2V63.7V63.6V63.5L393.1 63.3L392.8 63.2L392 63L391.6 62.6L391.3 62L390.8 61.6L390.5 61.2L390.4 61V60.9V60.8L389.9 60.5L389.8 60.3V60.2L391.7 59.7H392.1L392.6 59.8L394 60L394.9 60.2L396 60.3L396.3 60.5L395.9 60.4L395.8 60.5L396 60.6L396.1 60.7L395.7 60.6L395 60.5L394.2 60.4H394L393.7 60.8V61L394.4 61.9L395.1 62.5L395.6 63.1L395.5 63.3L395.7 63.6L396 63.9L396.6 64L396.8 64.1L397 64.3L397.1 64.7L396.9 65.2V65.3L397 65.5L397.9 65.9L397.7 66L397.5 66.1L397.4 66.3L396.4 66.4L396.2 66.8L395.5 67.2L395.2 67.5V67.7L395.5 68.4L395.6 68.7L395.2 69.1L395.3 69.7L395.1 70.5L394.8 70.6L394.6 70.8V71.3L394.2 72.3L394.7 73.5V73.9L394.6 74.2L394.7 74.5L394.6 74.8L394.2 75.3L394 75.7L393.9 76L394.1 76.3L393.9 76.2L393.4 76.3L392.4 76.2L392.6 77L392 77.1L391.1 76.9L390.9 77V77.1V77.2L391.5 77.5L391.9 77.7L392.1 77.9L392.5 78.2L392.8 78.8L393 79.3L392.9 79.8L392.5 80.7V80.8L392.6 81L394.1 83.3L394.9 84.3L396.2 85.9L396.8 86.4L398.1 87.6L399.6 88.9L402.2 91.1L403 91.8L406 94.5L406.5 95L407 95.4L407.6 95.9L408.4 96.3L408.9 96.8L410.7 98.5L412.2 100.1L412.6 100.5L412.9 100.8L413.6 101.1L414.1 101.5L414.4 101.8L414.7 102.1L414.9 102L415.3 101.2L415.5 100.5L415.4 100.2L415.5 100L415.8 99.7L416 98.9L415.7 97.8L415.4 97L415.2 96.7L415 96.4L414.4 95.8L414.3 95.6L413.9 94.9L413.6 94.7L413.1 94.6L413 94.3L413.2 94.2L413.5 94.3L413.9 94.6L414.2 94.7L414.3 94.2L414.6 93.9L415.5 93.5H416.1L417 93.9H417.2L416.6 93.4L415.9 93L415.7 92.8L415.5 92.4L415.1 92.1L414.8 91.9L414.3 91.5L413.7 90.7L413.5 90.2V90L413.8 89.6L414 89.1L414.3 88.7L414.6 88.6L415.1 88.5L415.9 88.8H416.9L417.1 88.7L417.2 88.1L417.4 87.9L416.8 87.4L416.1 87L415.1 86.5L414.7 86.3L414 85.7L413.5 85.2L413.1 84.6L412.8 83.9L412.3 83V82.9L412.6 82.7L412.8 82.5L412.9 82.4L412.3 81.9L412.4 81.7L412.5 81.6H413.1L413.2 81.5L413.4 81.4L413.5 81.7V81.9L413.2 82.2L413.3 82.6L414.5 83.2L415 83.3H415.2L415.3 83L415.4 82.9V82.7L414.5 81.9L413.9 81.5L413.5 81L413.1 80.9L412.7 80.8L412.4 80.9L412.1 80.8L411.8 80.6L411.5 80.4L411 79.9L410.7 79.6L410 79.1L409.8 79L409.6 78.7V78.3L409.7 78L409.6 77.7L409.5 77.5L409 77L408.6 76.8L407 76.4H406.8L406.6 76.6L407 77.1V77.3L406.9 77.2L406.8 77.1L406 76.9L405.5 76.7L405.2 76.5L404.8 76.3L404.3 76L403.8 75.3L403.4 74.7L403.3 73.8L403.5 73.5V73L403.6 72.9V72.8V72.7L403 72.4V72.3H403.1L403.4 72.4L403.2 71.8L402.3 71L401.7 70.3L401.5 70L401.4 69.8V69.6L401.5 69.5L401.6 69.3V69.1H402L402.4 69.2L402.9 69.3L403.2 69.6L403.3 69.3V69L403.4 68.9H403.7L404.4 69.1L405.2 69.5L405.5 69.6H405.8L405.9 69.5L405.7 69.2L405.1 68.7L405.3 68.6H405.5L405.6 68.3L405.9 68.2L406.4 67.8L406.6 67.4H407.1L407.3 67.7L407.5 67.9L408 68.5L408.2 68.8L408.6 69.2L408.9 69.4L409.3 69.7H409.5L409.6 69.6V69.3L409.5 68L409.8 67.6L410.6 67.4L410.8 67.3L411.6 67.1L412.4 67L413.1 67.1H413.4L414.5 67L414.8 67.1L416.3 67.5L417.6 68.1L417.8 68.2L418 68.3L418.3 68.5L418.6 68.7L418.9 68.8L419.7 69.1L420.3 69.2L420.2 69L420.1 68.9L419.5 68.1L419.4 67.8L419.2 67.6L419.1 67.5L419.4 67.3L419.7 67.2L420.3 66.5L420.5 66.1H420.8L420.9 66L421 65.9L421.1 65.8L421.2 65.5L421.4 65.3L421.1 65.1L421 64.9L421.2 64.8H421.4L421.5 64.6L421.3 64.4V64.3H421.5L421.8 64.4V64.3L421.3 64.1L421 63.9V63.8L421.8 64H422L422.1 63.5L422 62.9L422.7 63L423.1 62.6L423.4 62.5H424L424.1 62.3L424 62H424.3L425 61.7L424.9 61.5L425.1 61.4H425.3L425.5 61.2L426.7 60.6V60.4L427 60.1L427.4 60L428 59.9L427.9 59.8L427.2 59.7L426.9 59.6L426.7 59.5L426.6 59.4L426.4 59.2H426.5L426.9 59.3H427.1V59.2H427.2L427.5 59.4L427.6 59.6L427.7 59.7L427.9 59.9H428.1H429L430.1 60L433.5 60.7L433.9 60.8H434.1L433.8 60.5L433.6 60.2L433.7 60.1V59.7L433.6 59.4L433.2 59.1L432.6 58.8L432.2 58.7L431.7 58.5L431.3 58.3V58.1L431.4 58L431 57.8L430.6 57.7L429.4 57.4L428.8 57.2L428.5 57L427.5 56.5L427.6 56.6L427.9 56.8L428 57H427.8L427.6 56.9L427.3 56.6L427 56.5L426.4 56.4L426.2 56.3L426.5 56.1H426.6L426.7 56L425.8 55.4L425.1 55H424.7L424.3 54.9L424 54.6L423.8 54.5L422.9 54L422.5 53.8L422 53.6L422.1 53.8L422.4 54.1L422.2 54.2H421.9L420.8 53.9L419.5 53.4L418.8 53L418.2 52.4L418 52.3H417.8L417.2 52.5L417 52.8H416.7L415.8 52.6L415.3 52.9V52.7L415.4 52.6V52.5L414.9 52.2L414.5 52L414.1 51.9L413.7 51.8L413.6 51.9V52L413.3 52.1L412.5 52.2H411.9L411.1 52.4H410.7L411.7 52.1H412.5L413.2 51.9L413.4 51.5L414.9 51.9L415.3 52H416L416.9 52.2L417 52.1L416.9 51.9L416.2 51.6L415.7 51.4L415.4 51.3H414.7L414.1 51.2L413.7 51.1L413.8 51L414.5 51.1L415 50.9L416.1 51.1L416.6 51.3L416.9 51.4L418.3 51.9L419 52.1L420.6 52.3L421.5 52.5L421.8 52.4L422.3 51.9L422.9 51.8L423 51.5L422.9 51.1H423L423.3 50.9H423.2L423.4 50.6L423.3 50.4L422.9 49.9L422.8 49.7L422.7 49.5L422.4 49.3L422 49.1L421.5 48.9L420.7 48.7L420.2 48.5L419.6 48.2L419.1 47.8L418.8 47.5L418.6 47.2L419 47.4H419.4L419.5 47.3L419.3 47.1L418.9 46.9V46.8H419.1L418.9 46.7V46.6L419.1 46.7L419.7 47.1L420 47.2L420.4 47.3H420.5V47.2V47.1L420.3 46.7V46.5L420.7 46.8L421.1 47.2L421.2 47.3V47.4L421.5 47.7L421.6 47.8L421.2 47.7H421L421.6 48L422.2 48.2L422.8 48.4L423.3 48.5H423.4L423.5 48.6L423.7 48.7L424.1 49.1L424.4 49.3L424.8 49.4H425.1H426.7H427.2L427.6 49.1H427.9H428.3L429.5 49.3L431.1 49.6L432.1 50L432.9 50.4L433.6 50.8L433.8 51L434 51.1L434.7 51.3L435.6 51.6L435.8 51.7L436.1 51.8H436.3H436.7L436.9 51.7H437.2L437.9 51.8L438.9 52L440 52.3L440.6 52.5L441.8 52.9L442.3 53L443 53.2H443.2H443.3V53V52.8L443.2 52.6L443.5 52.8L443.7 53V53.1L444 53.3L444.6 53.5H445L445.3 53.4V53.3L445.2 53.2L444.4 52.7V52.6L444.8 52.7L445.1 52.8L445.4 53H445.5L447.1 53.5ZM74.4 0.4H75.1L77.3 0.3V0.2V0.0999999L76.9 0H74.6L74.3 0.0999999V0.2V0.3L74.4 0.4ZM77.4 2.7H77.8L77.9 2.6L77.7 2.4L77.5 2.3L77.3 2.2L76.9 2L76.6 1.9L75.9 1.8H75.7H75.6L74.9 2H74.3H73.9L74.5 2.3L75.3 2.4L75.9 2.6L76.7 2.7H77.4ZM75.5 3.4H74.5L74.4 3.5L74.6 3.6L74.9 3.7L75 3.8L75.1 3.9L75.5 4.3L75.7 4.4H75.9L76.8 4.5L77.1 4.4L77.4 4.2H77.6V4.1L77.5 4L77.7 3.9L79.5 3.8L79.1 3.7L78.7 3.6L77.6 3.5L75.5 3.4ZM79.3 3.3H79.4L80.2 3.5H80.7L81.4 3.4L82.5 3.6H83.2L83.5 3.4L84.1 3.3L84.2 3.2H84.4H85V3L85.1 2.9V2.7L84.9 2.6L84.7 2.5H84.1H83.5L83 2.4L82 2.5L81.3 2.6H80.9L80.7 2.5H80.4H79.6L79.4 2.6V2.7H79.3L79.2 2.8V3V3.1L79.3 3.3ZM76.4 1.2L76.7 1.3L77.5 1.4H77.9H78L77.7 1.3L77.2 1.2H76.8H76.4ZM81.8 2.3L82.4 2.2L83 2L83.1 1.9L82.8 1.8H81L80.2 2H80.1L80.7 2.1L81.8 2.3ZM69.8 37.2V37.5L69.9 37.8L70 38L70.1 38.2L70.2 38.3L70.7 38.8L71.4 39H72L72.6 38.9L73.6 38.6L74 38.2L74.1 37.9L74.5 37.7L74.7 37.8L74.8 38H74.9L75 37.9L74.8 37.6L74.5 37.4L74 37.2L71.8 36.5H71.1H70.8L70.3 36.7L69.8 37V37.2ZM80 4.8L80.4 4.9L81.1 4.8L81.5 4.7L81.1 4.5L80.5 4.4L79.4 4.6H79.3V4.8L79.7 4.9L80 4.8ZM70.9 4.1L71.4 4L71.3 3.9H71.1H70.8L70.5 4H70.4L70.6 4.1H70.9ZM84.2 0.5H84.3L85 0.6H86.4H86.6L86.8 0.5H86.7L86.5 0.4L84.5 0.3H83.4L83.1 0.4L84.2 0.5ZM72.2 4.4H72.4H73.3H75L75.2 4.3L75.1 4.2V4.1L74.9 3.8L74.7 3.7H74.4H73.9L73.8 3.8H72.4V3.9L72.6 4.2L72.5 4.3L72.2 4.4ZM86.1 2.4L85.7 2.5L85.6 2.6L86.2 2.8L86.8 2.9H87.2H87.6L90 2.8L90.8 2.6L91.5 2.3L91.3 2.2L91.2 2.1V2L91 1.9L90.6 1.8L90.2 1.7L89.7 1.6H89.2L88.7 1.7L88.6 1.8V1.9V2.1L88.5 2.2H88H87.5H86.5L86.1 2.4ZM70.5 1.6L71.5 1.5L71.9 1.6H72.2L72.5 1.5L72.8 1.4L73.6 1.5L74.3 1.6L74.9 1.5L75.2 1.4L75.3 1.3H75L74.8 1.1H75.9L76.3 1L76 0.9H75.1L74.7 0.8L74.5 0.7H74.3L73.8 0.8H73.6H73L72.8 0.9L72.2 1L71.6 1.1L71.2 1.3L70.4 1.2H69.8L70.2 1.4L70.5 1.6ZM65.2 4.1H65.3H65.4H65.9H67.3L67.5 4H67.8L67.9 3.9L67 3.8L66.6 3.7L66.5 3.6H66.2H65.5L65.3 3.7V3.8L65.1 3.9L64.5 4H64.4L64.8 4.1H65.2ZM49.3 3.2L49.9 3.3L50.6 3.2L50.8 3.3L51 3.4L51.2 3.5H51.7H52L52.2 3.3L52.3 3.2H53L53.2 3.1H53.3H53.5L53.6 2.9H53.8L53.9 2.8L54.1 2.7H54.3L55 2.9L56.3 3H56.4L56.3 2.8L55.9 2.6L55.6 2.5H55.4H55.2H54.5L53.5 2.4H53.3L52.6 2.5L52 2.7L51 2.8L48.6 3L48.2 3.1H48.7L49.3 3.2ZM57.3 45.5L57.4 45.7L58 45.9H58.1L58 45.8L57.8 45.6H57.6L57.3 45.5ZM387.5 120.6L387.4 120.4L387.3 120.2L387.2 119.7L387.1 119.5L386.6 118.9L386 118.2L385.8 118L385.6 117.9H385.4H385.1L384.9 117.7L384.2 117.1L383.4 116.3L382.9 115.9L382.7 115.8L382.5 115.7L382.2 115.6L381.9 115.5L381.4 115.2L380.7 114.6L380.5 114.4L380.1 113.8L379.7 113.1L379.5 112.4L378.7 109.8L378.4 109.1V108.7L378.6 108.5L379 108.4L380 108.3H380.3L380.8 108.4L381.1 108.5L381.4 108.7L382.3 109.2L382.9 109.5L383.5 109.9L384 110.2L384.5 110.7L384.7 110.8L384.2 110.1L384 109.9L383.6 109.7L382.7 109.3L382.1 108.8L381.5 108.3L381.1 107.8L380.6 107.4L380.1 107L379.2 106.1L377.4 104.6L376.5 103.8L373.7 101L373.5 100.9L373.4 100.8L373.1 100.4L372.9 100.1L372.6 99.9L372.1 99.7L371.9 99.5L371.6 99.1L371.2 98.7L370.7 98.3L370.2 97.8L369.4 96.8L369.2 96.5L369.3 96.4L369.2 96.2L369 96L368.8 95.7L368 94.7L367.4 94.1L367.1 93.8L366.7 93.5L365.7 92.8L364.2 91.7V91.6L363.9 91.4L363.7 91.1L363.6 90.8L363.5 90.6L363.3 90.4L361.9 89.5L361.6 89.4L361.7 89.6V89.8L361.6 89.9H361L361.8 90.4L363 91.1L363.3 91.4L363.5 91.7L363.6 92H363.8L363.9 92.2L363.6 92.3L363.7 92.5L364.1 92.7L364.2 93L364 93.1H363.9H363.7L363 92.8H362.9L362.5 92.9L362.4 93.1L362.5 93.3L363.2 94L363.6 94.4L364.3 95.3L364.9 96.2L365 96.6L365.1 97L365.3 97.3L366.3 98.6L366.7 98.9L367.1 99.1V99.2L367 99.3L367.3 99.5L367.8 99.7L368.5 100.1L369 100.4L370 101.2L370.7 102L370.8 102.4L371 102.8L371.3 103.3L371.6 103.7L372.4 104.5L372.7 104.9L374.5 107.4L374.8 107.9L375 108.4L375.5 109.3L375.7 109.7L375.9 110.5L376 110.7L376.2 110.9L377.1 111.6L377.9 112.3L378.8 113.4L379 113.8V114.2L379.1 114.6L379.2 115L379.3 115.2L379.9 115.9L380.3 116.3L380.6 116.7L380.8 117.1L381.2 118.4L381.7 119.3L382.7 120.4L382.9 120.7L383.2 121L383.5 121.2L383.8 121.4V121.1V120.8L383.4 119.8L383.3 119.4L383.2 119V118.7L383.4 118.5L383.5 118.4H383.7L384 118.6L384.3 118.8L384.4 118.9H385.1L385.9 119L386.3 119.3L386.7 119.7L387.2 120.2L387.7 120.9V120.7L387.5 120.6ZM56.3 3.3L55.9 3.2H55.8H55.6H55.4H54.7L54.2 3.3L53.7 3.4L52.3 3.8L52.6 3.9L52.9 4L53.3 4.1H53.9H54.1L54.3 4H54.7H55.2L55.4 4.1L54.9 4.3L54.8 4.4L55.1 4.5H55.5H55.7L55.8 4.4H55.9L56.4 4.5H56.6L56.7 4.4V4.3L57.2 4.4H57.4H57.6V4.3L57.5 4H57.4H57.3H56.8L57 3.9H57.2H58.7L59.1 3.8L58.9 3.7L59.1 3.6L60 3.5H61.4L61.7 3.3L62.8 3.1L62.5 3H62.2L60.8 2.6L60.5 2.5H59.7H59.3H59L57.8 2.6L57.3 2.7L57.2 3L57.4 3.1L57.5 3.4L57.3 3.5L56.3 3.3ZM9.90002 87.8V87.7L9.59998 87.5L9.29999 87.3L9 87H8.40002H7.79999H7.59998L7 86.9L6.40002 86.7L6 86.6L5.70001 86.5L5.5 86.3H5.20001H5V86.9L4.90002 87.5L4.29999 87.6H4L3.70001 87.5H3.40002L3.20001 87.4L3.90002 86.7L4.20001 86.3H4L3.90002 86.5L3.40002 87L3 87.4L2.59998 87.6H1.79999L1.40002 87.7V88V88.3L1.20001 88.7L0.900024 89L0.5 89.3H0.599976H1.40002H2.20001L3.5 89.4L4.90002 89.5L6.40002 89.6L8 89.7H9.70001H9.79999L9.70001 89.5L9.5 89.2V88.9L9.59998 88.6L9.90002 87.8ZM67.5 3.4L68.6 3.5L68.8 3.4V3.3L68.7 3.2L68.2 3.1H68.1L67.4 3V3.1L67.5 3.2V3.3V3.4ZM68.2 2.6H68.5H68.7L68.8 2.7H69.7L70.7 2.8L71.2 3H71.6H72.5L73.5 2.9L75 2.7L75.2 2.6L75 2.5L73.4 2.3L72.3 2.1L71.7 2H70.2L68.4 1.8H68.2L68 2.1V2.3H67.7L67.3 2.4L67.4 2.5L68.2 2.6ZM59.3 1.9L59.6 2H59.8H60.1V1.9L60.4 1.8L60.2 1.7H59.8H59.5H59.4H59.3H59.1L59.3 1.9ZM368.1 72.5L368.3 72.6H368.5L368.6 72.3L368.5 72.2L368.2 72.1V72.3L368.1 72.5ZM62.6 4.5L61.8 4.4L61.3 4.5H60.9L60.2 4.6L61.1 4.7H62.4H63.2H63.1L62.9 4.6L62.7 4.5V4.4L62.6 4.5ZM60.4 4.2L60.2 4.1H59.4L58.8 4.3L58.9 4.4L59.8 4.6H60V4.5L60.4 4.2Z" fill="#F193BD"/>
</svg>
