<svg width="20" height="20" viewBox="0 0 20 20" fill="none" xmlns="http://www.w3.org/2000/svg">
<path d="M16.5625 0.0280355C15.3781 -0.112568 14.1937 0.299868 13.3531 1.14661L6.83125 7.65184C5.65312 8.82041 4.99375 10.4139 5 12.073V13.7509C5 14.4414 5.55937 15.0007 6.25 15.0007H7.92812C9.5875 15.0038 11.1781 14.3445 12.3469 13.1697L18.8563 6.66137C20.3813 5.13661 20.3781 2.66512 18.8563 1.14349C18.2375 0.524833 17.4312 0.134269 16.5625 0.0280355ZM17.1031 4.89603L10.5813 11.4013C9.87813 12.1074 8.925 12.5042 7.92812 12.5011H7.5V12.073C7.5 11.0763 7.89375 10.1233 8.6 9.42032L15.1062 2.91196C15.6219 2.33393 16.5094 2.28393 17.0875 2.8026C17.6656 3.31815 17.7156 4.20551 17.1969 4.78354C17.1625 4.82104 17.125 4.85853 17.0875 4.8929H17.1031V4.89603Z" fill="#F193BD"/>
<path d="M3.75 19.9999H15C17.0719 19.9999 18.75 18.3221 18.75 16.2505V13.126C18.75 12.4355 18.1906 11.8762 17.5 11.8762C16.8094 11.8762 16.25 12.4355 16.25 13.126V16.2505C16.25 16.941 15.6906 17.5003 15 17.5003H3.75C3.05938 17.5003 2.5 16.941 2.5 16.2505V5.00226C2.5 4.31174 3.05938 3.75245 3.75 3.75245H6.875C7.56563 3.75245 8.125 3.19317 8.125 2.50265C8.125 1.81213 7.56563 1.25284 6.875 1.25284H3.75C1.67812 1.25284 0 2.93071 0 5.00226V16.2505C0 18.3221 1.67812 19.9999 3.75 19.9999Z" fill="#F193BD"/>
</svg>
