<svg width="20" height="20" viewBox="0 0 20 20" fill="none" xmlns="http://www.w3.org/2000/svg">
<path d="M16.5625 0.0281576C15.3781 -0.112445 14.1937 0.29999 13.3531 1.14673L6.83125 7.65197C5.65312 8.82053 4.99375 10.414 5 12.0732V13.751C5 14.4415 5.55937 15.0008 6.25 15.0008H7.92812C9.5875 15.0039 11.1781 14.3447 12.3469 13.1699L18.8563 6.6615C20.3813 5.13673 20.3781 2.66525 18.8563 1.14361C18.2375 0.524955 17.4312 0.134391 16.5625 0.0281576ZM17.1031 4.89615L10.5813 11.4014C9.87813 12.1075 8.925 12.5043 7.92812 12.5012H7.5V12.0732C7.5 11.0764 7.89375 10.1235 8.6 9.42044L15.1062 2.91208C15.6219 2.33405 16.5094 2.28406 17.0875 2.80272C17.6656 3.31827 17.7156 4.20563 17.1969 4.78366C17.1625 4.82116 17.125 4.85865 17.0875 4.89302H17.1031V4.89615Z" fill="#F193BD"/>
<path d="M3.75 20H15C17.0719 20 18.75 18.3222 18.75 16.2506V13.1261C18.75 12.4356 18.1906 11.8763 17.5 11.8763C16.8094 11.8763 16.25 12.4356 16.25 13.1261V16.2506C16.25 16.9411 15.6906 17.5004 15 17.5004H3.75C3.05938 17.5004 2.5 16.9411 2.5 16.2506V5.00238C2.5 4.31186 3.05938 3.75258 3.75 3.75258H6.875C7.56563 3.75258 8.125 3.19329 8.125 2.50277C8.125 1.81225 7.56563 1.25297 6.875 1.25297H3.75C1.67812 1.25297 0 2.93083 0 5.00238V16.2506C0 18.3222 1.67812 20 3.75 20Z" fill="#F193BD"/>
</svg>
